<svg width="183" height="60" viewBox="0 0 183 60" fill="none" xmlns="http://www.w3.org/2000/svg">
<circle cx="24" cy="24" r="24" fill="#F3EADA"/>
<path d="M31.375 38.25H37L36.2812 35.6562C36.0104 34.7396 35.6458 33.3958 35.1875 31.625C34.7292 29.8333 34.4062 28.5938 34.2188 27.9062H34.0938C33.5521 30.3229 32.875 32.9062 32.0625 35.6562L31.375 38.25ZM39.6875 48L38.0312 41.9062H30.3438L28.6875 48H23.875L31.4688 24.3125H37.0312L44.625 48H39.6875ZM56.9912 48.4375C55.2829 48.4375 53.6787 47.6667 52.1787 46.125H52.085L51.6787 48H47.9912V22.4688H52.6475V28.9062L52.5537 31.7812C54.1371 30.3438 55.7933 29.625 57.5225 29.625C59.71 29.625 61.4287 30.4583 62.6787 32.125C63.9496 33.7708 64.585 35.9688 64.585 38.7188C64.585 41.6771 63.835 44.0417 62.335 45.8125C60.8558 47.5625 59.0746 48.4375 56.9912 48.4375ZM55.9287 44.5625C57.0746 44.5625 58.0017 44.0729 58.71 43.0938C59.4183 42.1146 59.7725 40.6875 59.7725 38.8125C59.7725 35.2708 58.585 33.5 56.21 33.5C55.085 33.5 53.8975 34.125 52.6475 35.375V43.2188C53.6475 44.1146 54.7412 44.5625 55.9287 44.5625ZM83.1075 45.875C81.42 47.5833 79.3992 48.4375 77.045 48.4375C74.6908 48.4375 72.6596 47.5833 70.9512 45.875C69.2637 44.1667 68.42 41.8958 68.42 39.0625C68.42 36.2083 69.2637 33.9271 70.9512 32.2188C72.6596 30.4896 74.6908 29.625 77.045 29.625C79.3992 29.625 81.42 30.4792 83.1075 32.1875C84.795 33.8958 85.6387 36.1875 85.6387 39.0625C85.6387 41.8958 84.795 44.1667 83.1075 45.875ZM74.2325 43.125C74.8992 44.1042 75.8367 44.5938 77.045 44.5938C78.2533 44.5938 79.1804 44.1042 79.8262 43.125C80.4929 42.125 80.8262 40.7708 80.8262 39.0625C80.8262 37.3333 80.4929 35.9688 79.8262 34.9688C79.1804 33.9688 78.2533 33.4688 77.045 33.4688C75.8367 33.4688 74.8992 33.9688 74.2325 34.9688C73.5658 35.9688 73.2325 37.3333 73.2325 39.0625C73.2325 40.7708 73.5658 42.125 74.2325 43.125ZM95.8487 48.4375C92.1821 48.4375 90.3487 46.0521 90.3487 41.2812V30.0938H95.0362V40.6875C95.0362 42.0417 95.2342 43 95.63 43.5625C96.0258 44.125 96.6612 44.4062 97.5362 44.4062C98.2654 44.4062 98.9008 44.2396 99.4425 43.9062C99.9842 43.5729 100.567 43 101.192 42.1875V30.0938H105.88V48H102.067L101.692 45.4375H101.567C99.88 47.4375 97.9737 48.4375 95.8487 48.4375ZM118.434 48.4375C114.496 48.4375 112.527 46.1979 112.527 41.7188V33.7812H110.027V30.3125L112.777 30.0938L113.309 25.2812H117.246V30.0938H121.652V33.7812H117.246V41.7188C117.246 43.7396 118.059 44.75 119.684 44.75C120.163 44.75 120.746 44.6146 121.434 44.3438L122.215 47.7812C120.861 48.2188 119.6 48.4375 118.434 48.4375ZM134.479 48V30.0938H138.323L138.635 32.4688H138.76C140.573 30.5729 142.406 29.625 144.26 29.625C146.614 29.625 148.26 30.6771 149.198 32.7812C150.156 31.7812 151.073 31.0104 151.948 30.4688C152.843 29.9062 153.823 29.625 154.885 29.625C156.739 29.625 158.125 30.25 159.041 31.5C159.979 32.75 160.448 34.5312 160.448 36.8438V48H155.76V37.4062C155.76 36.0521 155.552 35.0938 155.135 34.5312C154.739 33.9479 154.114 33.6562 153.26 33.6562C152.239 33.6562 151.083 34.3333 149.791 35.6875V48H145.104V37.4062C145.104 36.0521 144.895 35.0938 144.479 34.5312C144.083 33.9479 143.458 33.6562 142.604 33.6562C141.583 33.6562 140.427 34.3333 139.135 35.6875V48H134.479ZM174.064 48.4375C171.501 48.4375 169.376 47.5938 167.689 45.9062C166.001 44.2188 165.158 41.9375 165.158 39.0625C165.158 36.2708 165.98 34 167.626 32.25C169.293 30.5 171.251 29.625 173.501 29.625C175.897 29.625 177.741 30.4167 179.033 32C180.345 33.5833 181.001 35.6562 181.001 38.2188C181.001 39.1562 180.928 39.8646 180.783 40.3438H169.72C169.908 41.7812 170.439 42.8958 171.314 43.6875C172.21 44.4583 173.335 44.8438 174.689 44.8438C176.064 44.8438 177.408 44.4271 178.72 43.5938L180.314 46.4688C178.439 47.7812 176.355 48.4375 174.064 48.4375ZM169.658 37.25H176.97C176.97 36 176.678 35.0312 176.095 34.3438C175.533 33.6354 174.689 33.2812 173.564 33.2812C172.585 33.2812 171.73 33.625 171.001 34.3125C170.272 35 169.824 35.9792 169.658 37.25Z" fill="#13586A"/>
</svg>
