<svg width="162" height="43" viewBox="0 0 162 43" fill="none" xmlns="http://www.w3.org/2000/svg">
<circle cx="18" cy="18" r="18" fill="#F3EADA"/>
<path d="M22.9609 20.7461C23.5208 20.7982 24.1458 20.8242 24.8359 20.8242C25.2917 20.8242 26.2227 20.7852 27.6289 20.707C29.0482 20.6289 30.0378 20.5573 30.5977 20.4922C31.1576 20.4401 31.6198 20.362 31.9844 20.2578L33.5469 22.0742C32.6615 22.6862 32.1471 23.0573 32.0039 23.1875C31.5221 23.5651 30.7214 24.2096 29.6016 25.1211C28.4948 26.0326 27.7201 26.6576 27.2773 26.9961C30.3112 26.6836 33.0911 26.5273 35.6172 26.5273V28.8516C33.4557 28.7214 31.763 28.7344 30.5391 28.8906C29.6146 29.0208 28.8268 29.3854 28.1758 29.9844C27.5247 30.5703 27.1992 31.2604 27.1992 32.0547C27.1992 32.7969 27.4596 33.3503 27.9805 33.7148C28.5013 34.0794 29.2435 34.3203 30.207 34.4375C31.1966 34.5417 32.1992 34.5547 33.2148 34.4766L32.707 37.0742C30.1289 37.1784 28.1432 36.8464 26.75 36.0781C25.3568 35.3099 24.6602 34.112 24.6602 32.4844C24.6602 31.9115 24.8034 31.3451 25.0898 30.7852C25.3763 30.2122 25.7148 29.737 26.1055 29.3594C24.4518 29.4896 22.4531 29.75 20.1094 30.1406L19.8555 27.7383C20.1029 27.7122 21.2552 27.582 23.3125 27.3477C24.7057 26.4362 26.5677 24.9323 28.8984 22.8359C28.7943 22.849 28.1693 22.8945 27.0234 22.9727C25.8906 23.0378 25.168 23.0833 24.8555 23.1094C24.6602 23.1224 24.3542 23.1549 23.9375 23.207C23.5208 23.2461 23.2344 23.2721 23.0781 23.2852L22.9609 20.7461ZM44.0688 32.4062C44.8891 32.4062 45.6898 31.0977 46.4711 28.4805C46.9398 27.0221 47.2979 25.4206 47.5453 23.6758C46.0089 24.0013 44.7849 24.7435 43.8734 25.9023C42.975 27.0482 42.5258 28.2201 42.5258 29.418C42.5258 30.3555 42.682 31.0911 42.9945 31.625C43.307 32.1458 43.6651 32.4062 44.0688 32.4062ZM49.4984 36.8203L48.0141 34.4766C48.7172 34.3854 49.3357 34.2812 49.8695 34.1641C51.1977 33.8516 52.2784 33.2331 53.1117 32.3086C53.9451 31.3841 54.3617 30.2318 54.3617 28.8516C54.3617 27.4714 53.9971 26.3125 53.268 25.375C52.5518 24.4375 51.5362 23.8516 50.2211 23.6172C49.8565 25.8307 49.4659 27.6276 49.0492 29.0078C48.4503 31.0521 47.7211 32.6341 46.8617 33.7539C46.0023 34.8737 45.0388 35.4336 43.9711 35.4336C42.8643 35.4336 41.9138 34.8867 41.1195 33.793C40.3383 32.6862 39.9477 31.3125 39.9477 29.6719C39.9477 27.3672 40.8331 25.3815 42.6039 23.7148C44.3747 22.0352 46.5297 21.1953 49.0688 21.1953C51.4646 21.1953 53.3917 21.9375 54.85 23.4219C56.3214 24.8932 57.057 26.7357 57.057 28.9492C57.057 31.0586 56.4125 32.8034 55.1234 34.1836C53.8344 35.5638 51.9594 36.4427 49.4984 36.8203ZM64.0828 19.125L66.2703 19.8477C65.7365 21.2018 65.118 22.5365 64.4148 23.8516V37.6992H62.0516V27.5234C61.5698 28.1615 61.1531 28.6628 60.8016 29.0273C60.476 28.207 60.0464 27.4062 59.5125 26.625C60.424 25.7135 61.2898 24.5872 62.1102 23.2461C62.9305 21.9049 63.588 20.5312 64.0828 19.125ZM70.8797 35.2969H74.9422C75.5151 35.2969 75.8927 35.1276 76.075 34.7891C76.2703 34.4505 76.4135 33.7083 76.5047 32.5625C77.1688 32.9922 77.8849 33.2982 78.6531 33.4805C78.4969 35.0039 78.1779 36.0456 77.6961 36.6055C77.2143 37.1654 76.3549 37.4453 75.118 37.4453H70.7039C69.2846 37.4453 68.3146 37.1979 67.7938 36.7031C67.2859 36.2214 67.032 35.2969 67.032 33.9297V28.4609L65.5477 29.0469L64.6297 26.9375L67.032 26V21.2734H69.3953V25.0625L71.3484 24.3203V19.1445H73.5555V23.4414L75.5867 22.6797L75.8797 22.4453L76.3289 22.1328L77.9305 22.7578L77.8523 23.1289C77.8263 26.918 77.7677 29.1706 77.6766 29.8867C77.5854 30.8112 77.2143 31.4102 76.5633 31.6836C76.0815 31.8919 75.3263 31.9831 74.2977 31.957C74.2456 31.0977 74.0698 30.375 73.7703 29.7891C74.3693 29.8151 74.7794 29.8281 75.0008 29.8281C75.2742 29.8281 75.4435 29.6719 75.5086 29.3594C75.5867 29.0339 75.6323 27.6016 75.6453 25.0625L73.5555 25.8828V32.9922H71.3484V26.7617L69.3953 27.5234V33.9297C69.3953 34.5286 69.4799 34.9062 69.6492 35.0625C69.8185 35.2188 70.2286 35.2969 70.8797 35.2969ZM85.2687 32.4062C86.0891 32.4062 86.8898 31.0977 87.6711 28.4805C88.1398 27.0221 88.4979 25.4206 88.7453 23.6758C87.2089 24.0013 85.9849 24.7435 85.0734 25.9023C84.175 27.0482 83.7258 28.2201 83.7258 29.418C83.7258 30.3555 83.882 31.0911 84.1945 31.625C84.507 32.1458 84.8651 32.4062 85.2687 32.4062ZM90.6984 36.8203L89.2141 34.4766C89.9172 34.3854 90.5357 34.2812 91.0695 34.1641C92.3977 33.8516 93.4784 33.2331 94.3117 32.3086C95.1451 31.3841 95.5617 30.2318 95.5617 28.8516C95.5617 27.4714 95.1971 26.3125 94.468 25.375C93.7518 24.4375 92.7362 23.8516 91.4211 23.6172C91.0565 25.8307 90.6659 27.6276 90.2492 29.0078C89.6503 31.0521 88.9211 32.6341 88.0617 33.7539C87.2023 34.8737 86.2388 35.4336 85.1711 35.4336C84.0643 35.4336 83.1138 34.8867 82.3195 33.793C81.5383 32.6862 81.1477 31.3125 81.1477 29.6719C81.1477 27.3672 82.0331 25.3815 83.8039 23.7148C85.5747 22.0352 87.7297 21.1953 90.2687 21.1953C92.6646 21.1953 94.5917 21.9375 96.05 23.4219C97.5214 24.8932 98.257 26.7357 98.257 28.9492C98.257 31.0586 97.6125 32.8034 96.3234 34.1836C95.0344 35.5638 93.1594 36.4427 90.6984 36.8203ZM103.017 25.3555H105.713V23.8516H103.701C103.61 24.0859 103.382 24.5872 103.017 25.3555ZM107.978 23.8516V25.3555H112.353V27.5039H107.978V28.9688H111.884V34.0664C111.884 35.0039 111.643 35.6094 111.162 35.8828C110.719 36.1432 109.944 36.2604 108.838 36.2344C108.785 35.6745 108.59 35.0039 108.252 34.2227C108.824 34.2617 109.241 34.2682 109.502 34.2422C109.658 34.2422 109.736 34.1641 109.736 34.0078V31.0781H107.978V37.7188H105.713V31.0781H104.072V36.1367H101.963V28.9688H105.713V27.5039H101.181V25.3555H102.685C101.956 25.0039 101.357 24.75 100.888 24.5938C101.709 23.3307 102.321 21.6055 102.724 19.418L104.892 19.8867C104.801 20.3945 104.651 21 104.443 21.7031H105.713V19.1836H107.978V21.7031H111.552V23.8516H107.978ZM115.478 20.707V31.957H113.252V20.707H115.478ZM116.845 19.3984H119.111V34.9258C119.111 35.5768 119.039 36.0716 118.896 36.4102C118.753 36.7617 118.499 37.0352 118.134 37.2305C117.509 37.543 116.364 37.6992 114.697 37.6992C114.619 37.0352 114.384 36.2344 113.994 35.2969C114.671 35.3229 115.472 35.3359 116.396 35.3359C116.565 35.3229 116.683 35.2904 116.748 35.2383C116.813 35.1732 116.845 35.0625 116.845 34.9062V19.3984ZM126.039 19.1445L128.363 19.8672C127.829 21.2995 127.191 22.6862 126.449 24.0273V37.7188H124.047V27.7188C123.878 27.9141 123.461 28.3958 122.797 29.1641C122.68 28.8516 122.484 28.4219 122.211 27.875C121.938 27.3281 121.697 26.9115 121.488 26.625C122.4 25.7266 123.259 24.6133 124.066 23.2852C124.887 21.944 125.544 20.5638 126.039 19.1445ZM140.375 24.5742H134.691V26.6836H139.887V28.832H134.691V31.0977H140.141V33.3047H134.691V37.7383H132.27V24.5742H131.508C130.701 26.0716 129.822 27.3672 128.871 28.4609C128.402 27.901 127.797 27.3477 127.055 26.8008C127.927 25.9154 128.734 24.8021 129.477 23.4609C130.232 22.1068 130.837 20.707 131.293 19.2617L133.598 19.8477C133.35 20.6159 133.025 21.4427 132.621 22.3281H140.375V24.5742ZM149.784 27.875L150.096 29.9844C149.836 30.0495 149.465 30.1602 148.983 30.3164C148.514 30.4727 148.169 30.5833 147.948 30.6484V37.7578H145.76V31.293C145.513 31.3711 145.181 31.4753 144.764 31.6055C144.347 31.7227 143.976 31.8333 143.651 31.9375C143.325 32.0286 143.026 32.1068 142.752 32.1719L142.186 29.9258C142.811 29.7956 144.002 29.4896 145.76 29.0078V25.1797H144.412C144.204 26.1302 143.957 26.9831 143.67 27.7383C143.306 27.4388 142.746 27.0742 141.991 26.6445C142.537 25.2513 142.922 23.1029 143.143 20.1992L145.116 20.5312C145.037 21.2865 144.94 22.0807 144.823 22.9141H145.76V19.0859H147.948V22.9141H149.608V25.1797H147.948V28.4023L149.784 27.875ZM153.338 22.1523H160.858C160.845 22.6992 160.832 23.0638 160.819 23.2461C160.636 27.7122 160.435 30.9023 160.213 32.8164C159.992 34.7305 159.692 35.9349 159.315 36.4297C158.937 36.9896 158.416 37.3346 157.752 37.4648C157.258 37.556 156.509 37.5755 155.506 37.5234C155.428 36.6771 155.207 35.9023 154.842 35.1992C155.337 35.2513 155.929 35.2773 156.62 35.2773C156.919 35.2773 157.166 35.1536 157.362 34.9062C157.87 34.2682 158.26 30.7526 158.534 24.3594H158.436C157.902 27.0938 157.108 29.6198 156.053 31.9375C154.998 34.2422 153.709 36.0195 152.186 37.2695C151.639 36.7227 150.988 36.2604 150.233 35.8828C151.756 34.7891 153.039 33.2266 154.08 31.1953C155.122 29.151 155.91 26.8724 156.444 24.3594H155.506C155.037 26.0781 154.393 27.7448 153.573 29.3594C152.765 30.9609 151.88 32.2174 150.916 33.1289C150.422 32.6081 149.816 32.1589 149.1 31.7812C150.037 31.0391 150.89 30.0039 151.659 28.6758C152.427 27.3346 153.045 25.8958 153.514 24.3594H152.498C151.873 25.8307 151.19 27.0221 150.448 27.9336C150.044 27.5299 149.439 27.0872 148.631 26.6055C150.129 24.9648 151.222 22.4518 151.912 19.0664L154.08 19.457C153.937 20.1081 153.69 21.0065 153.338 22.1523Z" fill="#13586A"/>
</svg>
