<svg width="167" height="43" viewBox="0 0 167 43" fill="none" xmlns="http://www.w3.org/2000/svg">
<circle cx="18" cy="18" r="18" fill="#F3EADA"/>
<path d="M25.5 36.2734C21.6589 36.2734 19.7383 33.9622 19.7383 29.3398V21.1953H22.707V29.5938C22.707 31.0781 22.9414 32.1393 23.4102 32.7773C23.8919 33.4023 24.5885 33.7148 25.5 33.7148C26.4375 33.7148 27.1471 33.3958 27.6289 32.7578C28.1237 32.1198 28.3711 31.0651 28.3711 29.5938V21.1953H31.2227V29.3398C31.2227 33.9622 29.3151 36.2734 25.5 36.2734ZM38.1703 36.2734C37.4281 36.2734 36.6729 36.1302 35.9047 35.8438C35.1365 35.5443 34.4724 35.1602 33.9125 34.6914L35.2406 32.8555C36.2823 33.6758 37.2849 34.0859 38.2484 34.0859C38.7823 34.0859 39.1859 33.9818 39.4594 33.7734C39.7328 33.5521 39.8695 33.2591 39.8695 32.8945C39.8695 32.8034 39.8565 32.7188 39.8305 32.6406C39.8044 32.5495 39.7589 32.4714 39.6938 32.4062C39.6417 32.3281 39.5831 32.263 39.518 32.2109C39.4659 32.1458 39.3813 32.0807 39.2641 32.0156C39.1469 31.9375 39.0557 31.8789 38.9906 31.8398C38.9255 31.7878 38.8083 31.7292 38.6391 31.6641C38.4828 31.599 38.3656 31.5534 38.2875 31.5273C38.2224 31.4883 38.0922 31.4362 37.8969 31.3711C37.7146 31.293 37.5909 31.2409 37.5258 31.2148C37.1091 31.0586 36.7445 30.8958 36.432 30.7266C36.1195 30.5573 35.8005 30.3424 35.475 30.082C35.1495 29.8216 34.8956 29.5156 34.7133 29.1641C34.544 28.7995 34.4594 28.3958 34.4594 27.9531C34.4594 26.9375 34.837 26.1107 35.5922 25.4727C36.3604 24.8346 37.3695 24.5156 38.6195 24.5156C39.9346 24.5156 41.2107 24.9779 42.4477 25.9023L41.1195 27.6797C40.2211 27.0417 39.4138 26.7227 38.6977 26.7227C37.7211 26.7227 37.2328 27.0807 37.2328 27.7969C37.2328 27.9141 37.2458 28.0247 37.2719 28.1289C37.3109 28.2201 37.3826 28.3112 37.4867 28.4023C37.5909 28.4805 37.6755 28.5521 37.7406 28.6172C37.8188 28.6693 37.9424 28.7344 38.1117 28.8125C38.294 28.8906 38.4307 28.9492 38.5219 28.9883C38.613 29.0273 38.7758 29.0924 39.0102 29.1836C39.2445 29.2617 39.4073 29.3203 39.4984 29.3594C39.9542 29.5417 40.3318 29.7109 40.6313 29.8672C40.9307 30.0104 41.2497 30.2122 41.5883 30.4727C41.9398 30.7331 42.2003 31.0521 42.3695 31.4297C42.5388 31.8073 42.6234 32.2435 42.6234 32.7383C42.6234 33.7669 42.2328 34.6133 41.4516 35.2773C40.6703 35.9414 39.5766 36.2734 38.1703 36.2734ZM50.3133 36.2734C48.7117 36.2734 47.3836 35.7461 46.3289 34.6914C45.2742 33.6367 44.7469 32.2109 44.7469 30.4141C44.7469 28.6693 45.2612 27.25 46.2898 26.1562C47.3315 25.0625 48.5555 24.5156 49.9617 24.5156C51.4591 24.5156 52.6115 25.0104 53.4188 26C54.2391 26.9896 54.6492 28.2852 54.6492 29.8867C54.6492 30.4727 54.6036 30.9154 54.5125 31.2148H47.5984C47.7156 32.1133 48.0477 32.8099 48.5945 33.3047C49.1544 33.7865 49.8576 34.0273 50.7039 34.0273C51.5633 34.0273 52.4031 33.7669 53.2234 33.2461L54.2195 35.043C53.0477 35.8633 51.7456 36.2734 50.3133 36.2734ZM47.5594 29.2812H52.1297C52.1297 28.5 51.9474 27.8945 51.5828 27.4648C51.2313 27.0221 50.7039 26.8008 50.0008 26.8008C49.3888 26.8008 48.8549 27.0156 48.3992 27.4453C47.9435 27.875 47.6635 28.487 47.5594 29.2812ZM57.6516 36V24.8086H60.0539L60.2492 26.7812H60.3273C60.731 26.0651 61.2128 25.5117 61.7727 25.1211C62.3456 24.7174 62.925 24.5156 63.5109 24.5156C63.9797 24.5156 64.4224 24.6003 64.8391 24.7695L64.3117 27.3086C63.8951 27.1784 63.5044 27.1133 63.1398 27.1133C62.6581 27.1133 62.1828 27.2956 61.7141 27.6602C61.2453 28.0117 60.8612 28.5651 60.5617 29.3203V36H57.6516ZM76.5469 23.5195V33.6758H78.0117V36H72.1133V33.6758H73.5781V23.5195H72.1133V21.1953H78.0117V23.5195H76.5469ZM81.7562 36V24.8086H84.1586L84.3539 26.2734H84.432C85.6299 25.1016 86.8409 24.5156 88.0648 24.5156C90.3826 24.5156 91.5414 26.0195 91.5414 29.0273V36H88.5922V29.3789C88.5922 28.5326 88.4685 27.9336 88.2211 27.582C87.9737 27.2174 87.5701 27.0352 87.0102 27.0352C86.5805 27.0352 86.1964 27.1328 85.8578 27.3281C85.5323 27.5234 85.1352 27.849 84.6664 28.3047V36H81.7562ZM99.2703 36.2734C96.8094 36.2734 95.5789 34.8737 95.5789 32.0742V27.1133H94.0164V24.9453L95.7352 24.8086L96.0672 21.8008H98.5281V24.8086H101.282V27.1133H98.5281V32.0742C98.5281 33.3372 99.0359 33.9688 100.052 33.9688C100.351 33.9688 100.716 33.8841 101.145 33.7148L101.634 35.8633C100.787 36.1367 99.9995 36.2734 99.2703 36.2734ZM108.835 36.2734C107.234 36.2734 105.905 35.7461 104.851 34.6914C103.796 33.6367 103.269 32.2109 103.269 30.4141C103.269 28.6693 103.783 27.25 104.812 26.1562C105.853 25.0625 107.077 24.5156 108.484 24.5156C109.981 24.5156 111.133 25.0104 111.941 26C112.761 26.9896 113.171 28.2852 113.171 29.8867C113.171 30.4727 113.126 30.9154 113.034 31.2148H106.12C106.238 32.1133 106.57 32.8099 107.116 33.3047C107.676 33.7865 108.379 34.0273 109.226 34.0273C110.085 34.0273 110.925 33.7669 111.745 33.2461L112.741 35.043C111.57 35.8633 110.267 36.2734 108.835 36.2734ZM106.081 29.2812H110.652C110.652 28.5 110.469 27.8945 110.105 27.4648C109.753 27.0221 109.226 26.8008 108.523 26.8008C107.911 26.8008 107.377 27.0156 106.921 27.4453C106.465 27.875 106.185 28.487 106.081 29.2812ZM116.173 36V24.8086H118.576L118.771 26.7812H118.849C119.253 26.0651 119.735 25.5117 120.295 25.1211C120.867 24.7174 121.447 24.5156 122.033 24.5156C122.502 24.5156 122.944 24.6003 123.361 24.7695L122.834 27.3086C122.417 27.1784 122.026 27.1133 121.662 27.1133C121.18 27.1133 120.705 27.2956 120.236 27.6602C119.767 28.0117 119.383 28.5651 119.084 29.3203V36H116.173ZM132.008 20.1602L131.461 22.3281C131.005 22.1589 130.615 22.0742 130.289 22.0742C129.378 22.0742 128.922 22.6602 128.922 23.832V24.8086H131.031V27.1133H128.922V36H125.973V27.1133H124.488V24.9453L125.973 24.8281V23.8906C125.973 22.6406 126.285 21.6445 126.91 20.9023C127.548 20.1471 128.538 19.7695 129.879 19.7695C130.621 19.7695 131.331 19.8997 132.008 20.1602ZM135.87 36.2734C134.88 36.2734 134.079 35.9609 133.467 35.3359C132.855 34.7109 132.549 33.9167 132.549 32.9531C132.549 31.7552 133.057 30.8307 134.073 30.1797C135.101 29.5156 136.742 29.0599 138.995 28.8125C138.942 27.5234 138.311 26.8789 137.1 26.8789C136.241 26.8789 135.212 27.2305 134.014 27.9336L132.959 26C134.561 25.0104 136.117 24.5156 137.627 24.5156C139.047 24.5156 140.114 24.9323 140.83 25.7656C141.56 26.599 141.924 27.8294 141.924 29.457V36H139.541L139.307 34.8086H139.248C138.116 35.7852 136.989 36.2734 135.87 36.2734ZM136.827 33.9883C137.53 33.9883 138.252 33.6172 138.995 32.875V30.6289C136.573 30.9414 135.362 31.638 135.362 32.7188C135.362 33.5651 135.85 33.9883 136.827 33.9883ZM150.298 36.2734C148.709 36.2734 147.401 35.7461 146.372 34.6914C145.343 33.6367 144.829 32.2109 144.829 30.4141C144.829 28.6172 145.382 27.1849 146.489 26.1172C147.609 25.0495 148.963 24.5156 150.552 24.5156C151.749 24.5156 152.837 24.9323 153.813 25.7656L152.407 27.6602C151.834 27.1654 151.261 26.918 150.688 26.918C149.829 26.918 149.139 27.237 148.618 27.875C148.097 28.513 147.837 29.3594 147.837 30.4141C147.837 31.4557 148.091 32.2956 148.598 32.9336C149.119 33.5586 149.79 33.8711 150.61 33.8711C151.352 33.8711 152.082 33.5716 152.798 32.9727L153.95 34.9258C152.934 35.8242 151.717 36.2734 150.298 36.2734ZM160.956 36.2734C159.355 36.2734 158.027 35.7461 156.972 34.6914C155.917 33.6367 155.39 32.2109 155.39 30.4141C155.39 28.6693 155.904 27.25 156.933 26.1562C157.974 25.0625 159.198 24.5156 160.605 24.5156C162.102 24.5156 163.254 25.0104 164.062 26C164.882 26.9896 165.292 28.2852 165.292 29.8867C165.292 30.4727 165.247 30.9154 165.155 31.2148H158.241C158.359 32.1133 158.691 32.8099 159.238 33.3047C159.797 33.7865 160.501 34.0273 161.347 34.0273C162.206 34.0273 163.046 33.7669 163.866 33.2461L164.863 35.043C163.691 35.8633 162.389 36.2734 160.956 36.2734ZM158.202 29.2812H162.773C162.773 28.5 162.59 27.8945 162.226 27.4648C161.874 27.0221 161.347 26.8008 160.644 26.8008C160.032 26.8008 159.498 27.0156 159.042 27.4453C158.586 27.875 158.307 28.487 158.202 29.2812Z" fill="#13586A"/>
</svg>
