<svg width="162" height="43" viewBox="0 0 162 43" fill="none" xmlns="http://www.w3.org/2000/svg">
<circle cx="18" cy="18" r="18" fill="#F3EADA"/>
<path d="M32.9609 21.9766C32.9609 22.4714 33.1432 22.8945 33.5078 23.2461C33.8724 23.5977 34.3151 23.7734 34.8359 23.7734C35.3568 23.7734 35.793 23.5977 36.1445 23.2461C36.5091 22.8945 36.6914 22.4714 36.6914 21.9766C36.6914 21.4557 36.5091 21.013 36.1445 20.6484C35.793 20.2839 35.3568 20.1016 34.8359 20.1016C34.3151 20.1016 33.8724 20.2839 33.5078 20.6484C33.1432 21.013 32.9609 21.4557 32.9609 21.9766ZM31.7109 21.8008C31.75 21.0065 32.056 20.3229 32.6289 19.75C33.2409 19.138 33.9766 18.832 34.8359 18.832C35.6953 18.832 36.4245 19.138 37.0234 19.75C37.6354 20.362 37.9414 21.0977 37.9414 21.957C37.9414 22.8034 37.6354 23.5326 37.0234 24.1445C36.4245 24.7565 35.6953 25.0625 34.8359 25.0625C34.7578 25.0625 34.6797 25.0625 34.6016 25.0625C33.8203 28.0703 32.9023 30.2708 31.8477 31.6641C29.9336 34.1771 27.3555 35.9935 24.1133 37.1133L22.0039 34.6719C23.5273 34.2682 24.9336 33.6628 26.2227 32.8555C27.5247 32.0352 28.5924 31.1107 29.4258 30.082C30.0508 29.3268 30.5586 28.4349 30.9492 27.4062C31.3529 26.3646 31.6263 25.3555 31.7695 24.3789H22.4531C21.5677 24.3789 20.7734 24.4049 20.0703 24.457V21.6445C20.8516 21.7487 21.6458 21.8008 22.4531 21.8008H31.7109ZM53.5023 24.3984H43.8344V32.6992H53.5023V24.3984ZM56.1781 23.7539V33.5586C56.1781 33.793 56.1781 34.1315 56.1781 34.5742C56.1911 35.0169 56.1977 35.4206 56.1977 35.7852C56.2107 36.1367 56.2172 36.319 56.2172 36.332H53.4633L53.4828 35.2383H43.8344L43.8539 36.332H41.1C41.1391 36.1367 41.1586 35.2057 41.1586 33.5391V23.7539C41.1586 22.8424 41.1456 22.1979 41.1195 21.8203C42.2133 21.8464 42.9229 21.8594 43.2484 21.8594H54.2445C55.0779 21.8594 55.7354 21.8464 56.2172 21.8203C56.1911 22.224 56.1781 22.8685 56.1781 23.7539ZM76.368 22.3281L75.2352 22.7969L76.7 23.6953C76.4005 24.2292 76.1792 24.7109 76.0359 25.1406C75.3979 27.0807 74.4799 28.9036 73.282 30.6094C74.3628 31.3125 75.0008 31.7357 75.1961 31.8789L73.3992 34.2422C73.0867 33.9557 72.4682 33.4805 71.5438 32.8164C69.4604 35.056 66.9995 36.7161 64.1609 37.7969L61.8367 35.7852C64.7664 34.8997 67.2469 33.4023 69.2781 31.293C68.1714 30.5768 66.9344 29.8216 65.5672 29.0273L67.2469 27.1133C68.2885 27.6602 69.5385 28.3633 70.9969 29.2227C72.0776 27.6341 72.7742 26.2148 73.0867 24.9648H67.3445C65.756 27.0612 63.9982 28.7799 62.0711 30.1211L59.9227 28.4609C62.5268 26.8464 64.6427 24.6328 66.2703 21.8203C66.713 21.0911 67.019 20.388 67.1883 19.7109L70.0789 20.6289C69.6753 21.2148 69.2716 21.8919 68.868 22.6602L68.8484 22.6797H72.9305C73.5164 22.6797 74.0438 22.6211 74.5125 22.5039C74.0307 21.5404 73.5945 20.7786 73.2039 20.2188L74.7859 19.5742C75.2547 20.2513 75.782 21.1693 76.368 22.3281ZM75.5672 19.3203L77.1492 18.6758C77.7482 19.5091 78.282 20.4141 78.7508 21.3906L77.1688 22.0742C76.674 21.0065 76.1401 20.0885 75.5672 19.3203ZM95.7375 22.3086L97.7883 23.5586C97.4758 24.0924 97.2544 24.5742 97.1242 25.0039C96.343 27.5299 95.1841 29.7565 93.6477 31.6836C91.6945 34.0794 88.9992 35.9609 85.5617 37.3281L83.1984 35.1992C85.0995 34.6393 86.675 33.9557 87.925 33.1484C89.175 32.3281 90.2883 31.3646 91.2648 30.2578C91.9289 29.5026 92.5214 28.6042 93.0422 27.5625C93.576 26.5078 93.9276 25.5898 94.0969 24.8086H88.4719C86.9745 26.7357 85.2948 28.3438 83.4328 29.6328L81.2062 27.9727C83.7974 26.3841 85.8742 24.2422 87.4367 21.5469C87.8664 20.8047 88.1659 20.1016 88.3352 19.4375L91.2648 20.3945C90.8352 21.0195 90.425 21.7031 90.0344 22.4453L89.9758 22.543H93.9992C94.6242 22.543 95.2036 22.4648 95.7375 22.3086ZM117.783 28.6367L116.63 31.3906C114.795 30.4271 112.392 29.4375 109.423 28.4219V34.0859C109.423 34.737 109.482 35.6615 109.599 36.8594H106.474C106.617 35.9089 106.689 34.9844 106.689 34.0859V22.6016C106.689 21.7292 106.617 20.9219 106.474 20.1797H109.599C109.482 21.2344 109.423 22.0417 109.423 22.6016V25.5312C110.765 25.9219 112.262 26.4297 113.916 27.0547C115.582 27.6667 116.871 28.194 117.783 28.6367ZM128.148 21.5664H124.945V22.5625H128.148V21.5664ZM124.945 25.2578H128.148V24.125H124.945V25.2578ZM130.375 26.9766H124.945V37.7773H122.621V19.8672H130.375V26.9766ZM129.984 31.293H131.84V29.8086H129.984V31.293ZM136.117 33.2461H133.93V37.4258H131.84V33.2461H129.926C129.822 34.0794 129.561 34.9128 129.145 35.7461C128.741 36.5794 128.142 37.263 127.348 37.7969C127.061 37.4062 126.56 36.957 125.844 36.4492C126.951 35.7591 127.628 34.6914 127.875 33.2461H125.883V31.293H127.953V29.8086H126.156V27.9141H135.824V29.8086H133.93V31.293H136.117V33.2461ZM133.871 25.3164H137.113V24.125H133.871V25.3164ZM137.113 21.5664H133.871V22.5625H137.113V21.5664ZM139.457 19.8672V34.9648C139.457 35.5898 139.385 36.0716 139.242 36.4102C139.112 36.7617 138.865 37.0286 138.5 37.2109C137.94 37.5104 136.853 37.6602 135.238 37.6602C135.147 36.8919 134.9 36.1042 134.496 35.2969C134.9 35.3229 135.642 35.3359 136.723 35.3359C136.983 35.3359 137.113 35.1992 137.113 34.9258V27.0156H131.625V19.8672H139.457ZM152.752 30.3164V28.0508H150.272V30.3164H152.752ZM156.971 28.0508H155.213V30.3164H159.412V32.5039H155.213V34.6914C155.213 35.056 155.252 35.2904 155.33 35.3945C155.409 35.4857 155.591 35.5312 155.877 35.5312H157.381C157.642 35.5312 157.811 35.3945 157.889 35.1211C157.98 34.8477 158.052 34.2357 158.104 33.2852C158.338 33.4674 158.664 33.6497 159.08 33.832C159.51 34.0143 159.894 34.138 160.233 34.2031C160.116 35.5312 159.868 36.4362 159.491 36.918C159.113 37.4128 158.488 37.6602 157.616 37.6602H155.487C154.406 37.6602 153.677 37.4518 153.299 37.0352C152.935 36.6185 152.752 35.8438 152.752 34.7109V32.5039H150.096C149.849 33.6888 149.308 34.7305 148.475 35.6289C147.642 36.5273 146.359 37.263 144.627 37.8359C144.328 37.224 143.827 36.5924 143.123 35.9414C145.519 35.1992 147.01 34.0534 147.596 32.5039H143.631V30.3164H147.928V28.0508H146.209V27.4648C145.428 28.0508 144.53 28.5846 143.514 29.0664C143.071 28.3112 142.596 27.7122 142.088 27.2695C143.286 26.7747 144.412 26.0716 145.467 25.1602C144.92 24.6003 144.256 24.0273 143.475 23.4414L144.959 22.1914C145.78 22.7773 146.424 23.2786 146.893 23.6953C147.427 23.0443 147.85 22.4388 148.162 21.8789H144.061V19.8477H149.295L149.705 19.7305L151.307 20.4922C150.63 22.5365 149.556 24.3138 148.084 25.8242H155.291C153.807 24.2096 152.603 22.1719 151.678 19.7109L153.787 19.1055C154.048 19.7956 154.386 20.5117 154.803 21.2539C155.545 20.5508 156.131 19.9323 156.561 19.3984L158.358 20.6875C157.277 21.625 156.431 22.3216 155.819 22.7773C155.988 23.0117 156.281 23.3633 156.698 23.832C157.609 23.0638 158.358 22.3411 158.944 21.6641L160.682 22.8945C159.758 23.7409 158.879 24.4635 158.045 25.0625C158.983 25.8047 160.037 26.4167 161.209 26.8984C160.61 27.3932 160.057 28.0833 159.549 28.9688C158.521 28.4609 157.661 27.9336 156.971 27.3867V28.0508Z" fill="#13586A"/>
</svg>
