<svg width="418" height="29" viewBox="0 0 418 29" fill="none" xmlns="http://www.w3.org/2000/svg">
<rect y="19" width="418" height="10" fill="#F3EADA"/>
<path d="M13.1133 16.8887H15.0645C15.334 16.8887 15.8906 16.8418 16.7344 16.748V19.3496C16.3125 19.291 15.7559 19.2617 15.0645 19.2617H3.05859C2.39062 19.2617 1.79883 19.291 1.2832 19.3496V16.748C1.9043 16.8418 2.49609 16.8887 3.05859 16.8887H10.4941C11.1387 13.1035 11.4727 10.7891 11.4961 9.94531H5.29102C4.50586 9.94531 3.82617 9.96875 3.25195 10.0156V7.4668C4.02539 7.56055 4.69922 7.60742 5.27344 7.60742H10.9688C11.707 7.60742 12.2637 7.53125 12.6387 7.37891L14.502 8.31055C14.4199 8.61523 14.3613 8.89062 14.3262 9.13672C14.1621 10.3906 13.7578 12.9746 13.1133 16.8887ZM34.5101 14.498L32.4007 14.4102H22.7327H22.7152L22.223 14.1992C21.555 13.918 21.0159 13.7012 20.6058 13.5488C20.2073 13.3965 19.8441 13.2559 19.5159 13.127L20.6409 10.5254C22.0706 11.1582 22.9437 11.5742 23.2601 11.7734H32.4007C32.8577 11.7734 33.5609 11.7383 34.5101 11.668V14.498ZM53.903 7.87109L52.6725 8.25781C52.3444 7.22656 52.0163 6.41211 51.6881 5.81445L52.9186 5.42773C53.317 6.29492 53.6452 7.10937 53.903 7.87109ZM52.0221 8.46875L50.7741 8.85547C50.4225 7.76562 50.1178 6.94531 49.86 6.39453L51.0729 5.99023C51.5065 6.93945 51.8229 7.76562 52.0221 8.46875ZM49.526 9.52344H50.8444C51.6413 9.52344 52.3034 9.47656 52.8307 9.38281V11.7734C52.4205 11.7383 51.7643 11.7207 50.862 11.7207H49.526V12.3184C49.526 13.4902 49.444 14.5098 49.2799 15.377C49.1276 16.2324 48.8463 17.041 48.4362 17.8027C48.0377 18.5645 47.4811 19.2383 46.7663 19.8242C46.0631 20.4102 45.1725 20.9434 44.0944 21.4238L42.1784 19.5957C43.4088 19.1621 44.3639 18.6816 45.0436 18.1543C45.735 17.627 46.2623 16.9062 46.6256 15.9922C46.9889 15.0664 47.1705 13.8711 47.1705 12.4062V11.7207H42.9166V14.1641C42.9166 14.4922 42.9401 15.125 42.987 16.0625H40.4557C40.5377 15.5117 40.5788 14.8789 40.5788 14.1641V11.7207H39.0495C38.2877 11.7207 37.6373 11.7441 37.0983 11.791V9.34766C37.8014 9.46484 38.4518 9.52344 39.0495 9.52344H40.5788V7.73047C40.5788 7.42578 40.5377 6.88086 40.4557 6.0957H43.0221C42.9518 6.76367 42.9166 7.31445 42.9166 7.74805V9.52344H47.1705V7.60742C47.1705 6.95117 47.1354 6.40039 47.0651 5.95508H49.6491C49.567 6.50586 49.526 7.05664 49.526 7.60742V9.52344ZM70.8701 14.498L68.7607 14.4102H59.0927H59.0752L58.583 14.1992C57.915 13.918 57.3759 13.7012 56.9658 13.5488C56.5673 13.3965 56.2041 13.2559 55.8759 13.127L57.0009 10.5254C58.4306 11.1582 59.3037 11.5742 59.6201 11.7734H68.7607C69.2177 11.7734 69.9209 11.7383 70.8701 11.668V14.498ZM86.0618 7.44922L87.2923 9.52344C86.6243 9.91016 86.0384 10.2266 85.5345 10.4727C85.4173 10.5312 85.0891 10.6953 84.5501 10.9648C84.011 11.2344 83.5598 11.4629 83.1966 11.6504C82.845 11.8262 82.4114 12.0547 81.8958 12.3359C81.3802 12.6172 80.9348 12.8809 80.5598 13.127C78.9075 14.1934 78.0813 15.2715 78.0813 16.3613C78.0813 17.6738 79.3177 18.3301 81.7903 18.3301C83.7356 18.3301 85.6809 18.1133 87.6263 17.6797L87.5911 20.2461C85.7864 20.5391 83.8763 20.6855 81.8606 20.6855C77.7122 20.6855 75.638 19.3379 75.638 16.6426C75.638 14.9668 76.6223 13.3965 78.5911 11.9316C77.7942 10.4551 76.9563 8.68555 76.0774 6.62305L78.3274 5.70898C78.9134 7.2793 79.6575 8.92578 80.5598 10.6484C81.1223 10.3203 81.8665 9.91016 82.7923 9.41797C83.718 8.92578 84.263 8.63281 84.427 8.53906C85.2356 8.04688 85.7805 7.68359 86.0618 7.44922ZM108.127 18.8047V20.8438H94.5211V21.5996H92.3766V5.60352H107.652V7.66016H97.8961L99.6012 8.08203C99.5191 8.29297 99.3668 8.60938 99.1441 9.03125H106.527V10.8242H102.308V12.1602H107.248V13.9883H102.537C103.509 15.4414 105.209 16.3379 107.634 16.6777C107.107 17.1816 106.685 17.7734 106.369 18.4531C104.166 17.9727 102.519 17.0176 101.429 15.5879C100.504 16.8184 98.8629 17.7734 96.5074 18.4531C96.1793 17.8906 95.7398 17.3633 95.1891 16.8711C97.8258 16.2734 99.4137 15.3125 99.9527 13.9883H95.3648V12.1602H100.181V10.8242H97.9664C97.5445 11.3398 97.1578 11.7441 96.8063 12.0371C96.1031 11.5332 95.523 11.1699 95.066 10.9473C96.2027 10.0918 97.0406 8.99609 97.5797 7.66016H94.5211V18.8047H108.127ZM116.041 17.627L117.957 18.1895C117.641 18.7871 117.23 19.3789 116.726 19.9648C116.223 20.5391 115.713 21.0137 115.197 21.3887C114.646 20.8379 114.125 20.4102 113.633 20.1055C114.699 19.4141 115.502 18.5879 116.041 17.627ZM122.035 18.4707L123.635 17.6094C124.877 18.7695 125.726 19.7129 126.184 20.4395L124.478 21.3711C123.998 20.5391 123.184 19.5723 122.035 18.4707ZM122.58 14.2871V13.584H117.922V14.2871H122.58ZM122.58 16.1855V15.4648H117.922V16.1855H122.58ZM114.195 8.01172V11.9844C114.195 12.2891 114.184 12.793 114.16 13.4961C114.605 13.2852 115.109 12.9863 115.672 12.5996C115.402 12.3652 115.033 12.0898 114.564 11.7734L115.689 10.8242C116.064 11.0586 116.434 11.3223 116.797 11.6152C117.101 11.3105 117.353 11.0176 117.553 10.7363H114.758V9.13672H118.519C118.719 8.65625 118.853 8.28125 118.924 8.01172H114.195ZM120.963 10.7363H119.75C119.422 11.3223 119.041 11.8555 118.607 12.3359H122.053C121.654 11.8555 121.291 11.3223 120.963 10.7363ZM124.9 10.7363H122.879C123.09 11.0176 123.406 11.3574 123.828 11.7559C124.25 11.4043 124.607 11.0645 124.9 10.7363ZM124.988 10.7363L126.184 11.5977C125.68 12.043 125.258 12.3828 124.918 12.6172C125.562 13.0156 126.148 13.3145 126.676 13.5137C126.23 13.8535 125.826 14.3457 125.463 14.9902C124.994 14.7676 124.654 14.5918 124.443 14.4629V17.4336H121.279V19.7363C121.279 20.2051 121.221 20.5566 121.103 20.791C120.998 21.0371 120.787 21.2246 120.471 21.3535C120.025 21.541 119.182 21.6348 117.939 21.6348C117.834 21.1191 117.611 20.5391 117.271 19.8945C117.717 19.9062 118.279 19.9121 118.959 19.9121C119.146 19.9121 119.24 19.8359 119.24 19.6836V17.4336H116.129V14.4629C115.801 14.6738 115.426 14.8906 115.004 15.1133C114.851 14.7852 114.559 14.416 114.125 14.0059C113.891 17.3574 113.018 19.8594 111.506 21.5117C111.365 21.3125 111.131 21.0605 110.803 20.7559C110.486 20.4629 110.228 20.2461 110.029 20.1055C111.06 18.9453 111.717 17.4219 111.998 15.5352C111.518 15.8398 110.908 16.1973 110.17 16.6074L109.537 14.6738C110.006 14.4746 110.896 14.0469 112.209 13.3906C112.221 13.0625 112.226 12.5879 112.226 11.9668V11.4395L110.662 12.1426C110.557 11.0762 110.234 9.85742 109.695 8.48633L111.207 7.87109C111.711 8.96094 112.051 10.0215 112.226 11.0527V6.21875H117.869V4.77734H120.119V6.21875H126.412V8.01172H119.592L120.893 8.1875C120.775 8.51562 120.658 8.83203 120.541 9.13672H126.148V10.7363H124.988ZM132.182 16.7656C132.92 16.7656 133.641 15.5879 134.344 13.2324C134.766 11.9199 135.088 10.4785 135.311 8.9082C133.928 9.20117 132.826 9.86914 132.006 10.9121C131.198 11.9434 130.793 12.998 130.793 14.0762C130.793 14.9199 130.934 15.582 131.215 16.0625C131.496 16.5312 131.819 16.7656 132.182 16.7656ZM137.069 20.7383L135.733 18.6289C136.365 18.5469 136.922 18.4531 137.403 18.3477C138.598 18.0664 139.571 17.5098 140.321 16.6777C141.071 15.8457 141.446 14.8086 141.446 13.5664C141.446 12.3242 141.117 11.2812 140.461 10.4375C139.817 9.59375 138.903 9.06641 137.719 8.85547C137.391 10.8477 137.039 12.4648 136.664 13.707C136.125 15.5469 135.469 16.9707 134.696 17.9785C133.922 18.9863 133.055 19.4902 132.094 19.4902C131.098 19.4902 130.242 18.998 129.528 18.0137C128.824 17.0176 128.473 15.7812 128.473 14.3047C128.473 12.2305 129.27 10.4434 130.864 8.94336C132.457 7.43164 134.397 6.67578 136.682 6.67578C138.838 6.67578 140.573 7.34375 141.885 8.67969C143.209 10.0039 143.871 11.6621 143.871 13.6543C143.871 15.5527 143.291 17.123 142.131 18.3652C140.971 19.6074 139.283 20.3984 137.069 20.7383ZM159.784 7.37891L161.629 8.52148C161.36 8.97852 161.161 9.40039 161.032 9.78711C160.434 11.5449 159.602 13.1914 158.536 14.7266C159.028 15.0312 159.608 15.418 160.276 15.8867L158.641 17.9785C158.383 17.7441 157.821 17.3223 156.954 16.7129C155.102 18.7285 152.893 20.2227 150.327 21.1953L148.235 19.3672C150.872 18.5703 153.11 17.2285 154.95 15.3418C153.836 14.627 152.711 13.9414 151.575 13.2852L153.104 11.5801C154.288 12.2012 155.419 12.8281 156.497 13.4609C157.458 12.0664 158.079 10.7891 158.36 9.62891H153.192C151.739 11.5391 150.157 13.0859 148.446 14.2695L146.495 12.7754C148.885 11.2988 150.801 9.30664 152.243 6.79883C152.629 6.1543 152.899 5.52734 153.051 4.91797L155.67 5.72656C155.272 6.30078 154.897 6.91016 154.545 7.55469L154.528 7.57227H158.219C158.84 7.57227 159.362 7.50781 159.784 7.37891ZM172.708 9.29492C173.364 10.8066 173.856 12.1191 174.184 13.2324L172.022 13.9883C171.917 13.543 171.7 12.8809 171.372 12.002C171.056 11.123 170.786 10.4551 170.563 9.99805L172.708 9.29492ZM176.821 9.78711L179.352 10.5957C179.188 11.0527 179.042 11.4922 178.913 11.9141C178.35 14.0586 177.536 15.8164 176.47 17.1875C174.876 19.25 172.866 20.7383 170.44 21.6523L168.559 19.7363C169.626 19.4551 170.71 18.9805 171.811 18.3125C172.913 17.6445 173.821 16.8652 174.536 15.9746C175.145 15.2129 175.655 14.2754 176.065 13.1621C176.475 12.0488 176.727 10.9238 176.821 9.78711ZM168.542 10.2441C169.057 11.2871 169.614 12.6523 170.212 14.3398L168.015 15.1836C167.839 14.6328 167.569 13.8945 167.206 12.9688C166.854 12.0312 166.579 11.3809 166.38 11.0176L168.542 10.2441ZM192.294 11.4922H196.829C197.111 11.4922 197.655 11.457 198.464 11.3867V13.707C197.808 13.6602 197.28 13.6367 196.882 13.6367H192.224C191.943 16.8945 190.407 19.3555 187.618 21.0195L185.333 19.4727C188.017 18.2305 189.523 16.2852 189.851 13.6367H184.894C184.402 13.6367 183.839 13.6602 183.206 13.707V11.3867C183.863 11.457 184.413 11.4922 184.859 11.4922H189.939V8.92578C188.591 9.03125 186.98 9.11328 185.105 9.17188L184.56 7.08008C186.833 7.13867 188.878 7.03906 190.695 6.78125C192.816 6.48828 194.327 6.13086 195.23 5.70898L196.706 7.69531C196.46 7.75391 196.173 7.82422 195.845 7.90625C195.529 7.97656 195.353 8.01758 195.318 8.0293C194.415 8.26367 193.407 8.46289 192.294 8.62695V11.4922ZM211.898 13.7949L213.867 12.7051C214.652 13.748 215.677 15.3301 216.943 17.4512L214.816 18.6113C213.914 16.8066 212.941 15.2012 211.898 13.7949ZM214.394 11.1758H210.193V19.3496C210.193 19.877 210.035 20.2871 209.718 20.5801C209.402 20.8848 208.933 21.0371 208.312 21.0371C207.269 21.0371 206.291 20.9844 205.376 20.8789L205.166 18.6465C205.939 18.7871 206.607 18.8574 207.169 18.8574C207.404 18.8574 207.568 18.8105 207.662 18.7168C207.755 18.623 207.808 18.459 207.82 18.2246C207.832 17.8027 207.837 15.4531 207.837 11.1758H203.267C202.623 11.1758 202.042 11.1934 201.527 11.2285V8.85547C202.16 8.9375 202.74 8.97852 203.267 8.97852H207.837V7.50195C207.837 6.92773 207.785 6.40625 207.679 5.9375H210.351C210.246 6.67578 210.193 7.20312 210.193 7.51953V8.97852H212.759C212.384 8.49805 212.197 7.94141 212.197 7.30859C212.197 6.55859 212.46 5.91992 212.988 5.39258C213.515 4.85352 214.16 4.58398 214.921 4.58398C215.671 4.58398 216.31 4.84766 216.837 5.375C217.365 5.90234 217.628 6.54687 217.628 7.30859C217.628 8.05859 217.365 8.69727 216.837 9.22461C216.638 9.43555 216.416 9.60547 216.169 9.73438V11.2285C215.783 11.1934 215.191 11.1758 214.394 11.1758ZM204.076 12.7578L206.08 13.7949C205.681 14.5684 205.142 15.4355 204.462 16.3965C203.794 17.3574 203.209 18.1133 202.705 18.6641L200.736 17.3281C201.345 16.7539 201.96 16.0391 202.582 15.1836C203.214 14.3281 203.712 13.5195 204.076 12.7578ZM216.011 6.20117C215.718 5.89648 215.355 5.74414 214.921 5.74414C214.5 5.74414 214.13 5.89648 213.814 6.20117C213.509 6.49414 213.357 6.86328 213.357 7.30859C213.357 7.74219 213.509 8.11133 213.814 8.41602C214.13 8.70898 214.5 8.85547 214.921 8.85547C215.355 8.85547 215.718 8.70898 216.011 8.41602C216.316 8.11133 216.468 7.74219 216.468 7.30859C216.468 6.86328 216.316 6.49414 216.011 6.20117ZM229.322 11.0703V18.4355C229.322 19.6191 229.375 20.4043 229.48 20.791H226.633C226.715 20.2754 226.756 19.4902 226.756 18.4355V12.5293C224.623 13.6074 222.56 14.4219 220.568 14.9727L219.267 12.7754C222.279 12.1191 225.01 11.0352 227.459 9.52344C228.396 8.9375 229.293 8.27539 230.148 7.53711C231.004 6.79883 231.678 6.10742 232.17 5.46289L234.086 7.20312C232.633 8.65625 231.045 9.94531 229.322 11.0703ZM240.682 6.32422C241.338 6.75781 242.147 7.37305 243.108 8.16992C244.08 8.95508 244.819 9.60547 245.322 10.1211L243.494 12.002C243.014 11.4863 242.305 10.8242 241.367 10.0156C240.43 9.19531 239.639 8.5625 238.994 8.11719L240.682 6.32422ZM238.432 18.3125C241.01 17.9375 243.307 17.1523 245.322 15.957C246.787 15.0898 248.094 14.0234 249.242 12.7578C250.402 11.4922 251.281 10.2207 251.879 8.94336L253.285 11.4922C252.582 12.7344 251.651 13.9414 250.49 15.1133C249.33 16.2852 248.041 17.2988 246.623 18.1543C244.49 19.4434 242.264 20.2871 239.944 20.6855L238.432 18.3125ZM270.165 13.373L269.127 15.8516C267.475 14.9844 265.313 14.0938 262.641 13.1797V18.2773C262.641 18.8633 262.694 19.6953 262.799 20.7734H259.987C260.116 19.918 260.18 19.0859 260.18 18.2773V7.94141C260.18 7.15625 260.116 6.42969 259.987 5.76172H262.799C262.694 6.71094 262.641 7.4375 262.641 7.94141V10.5781C263.848 10.9297 265.196 11.3867 266.684 11.9492C268.184 12.5 269.344 12.9746 270.165 13.373ZM283.915 17.416H281.77C281.794 17.0879 281.817 16.3789 281.841 15.2891C280.481 16.0273 279.802 16.7949 279.802 17.5918C279.802 18.0605 280.007 18.3887 280.417 18.5762C280.827 18.752 281.489 18.8398 282.403 18.8398C284.102 18.8398 285.79 18.6699 287.466 18.3301L287.395 20.6504C285.802 20.8379 284.12 20.9316 282.35 20.9316C279.081 20.9316 277.446 19.9414 277.446 17.9609C277.446 17.4219 277.563 16.9121 277.798 16.4316C278.032 15.9395 278.366 15.5 278.8 15.1133C279.233 14.7148 279.667 14.375 280.1 14.0938C280.546 13.8008 281.061 13.5078 281.647 13.2148C281.389 12.8047 280.973 12.5996 280.399 12.5996C279.919 12.5996 279.427 12.7168 278.923 12.9512C278.419 13.1855 277.985 13.4785 277.622 13.8301C277.235 14.2168 276.679 14.8672 275.952 15.7812L274.054 14.3574C275.882 12.6699 277.188 11.041 277.973 9.4707H277.763C276.661 9.4707 275.659 9.42969 274.757 9.34766V7.25586C275.577 7.38477 276.62 7.44922 277.886 7.44922H278.747C278.981 6.57031 279.104 5.89648 279.116 5.42773L281.454 5.62109C281.348 6.16016 281.202 6.74609 281.014 7.37891C283.007 7.27344 284.688 7.09766 286.059 6.85156L286.042 8.94336C284.425 9.17773 282.485 9.33594 280.223 9.41797C279.919 10.0977 279.579 10.6953 279.204 11.2109C279.696 10.9766 280.364 10.8594 281.208 10.8594C281.759 10.8594 282.245 10.9824 282.667 11.2285C283.089 11.4629 283.399 11.8027 283.598 12.248C284.114 12.002 284.917 11.6445 286.007 11.1758C286.264 11.0586 286.616 10.8945 287.061 10.6836C287.507 10.4727 287.805 10.332 287.958 10.2617L288.872 12.3359C288.473 12.4297 287.764 12.6816 286.745 13.0918C285.55 13.5488 284.583 13.9473 283.845 14.2871C283.856 14.6738 283.868 15.2715 283.88 16.0801C283.903 16.8887 283.915 17.334 283.915 17.416ZM298.878 17.1348C298.878 16.877 298.872 16.6719 298.86 16.5195C298.31 16.4375 297.818 16.3965 297.384 16.3965C296.693 16.3965 296.148 16.5078 295.749 16.7305C295.362 16.9531 295.169 17.252 295.169 17.627C295.169 18.4238 295.884 18.8223 297.314 18.8223C297.888 18.8223 298.292 18.6934 298.526 18.4355C298.761 18.166 298.878 17.7324 298.878 17.1348ZM306.577 17.9609L305.206 20.0879C303.976 18.8574 302.663 17.9258 301.269 17.293C301.28 17.4453 301.286 17.6504 301.286 17.9082C301.286 18.8105 300.993 19.5488 300.407 20.123C299.833 20.6973 298.86 20.9844 297.489 20.9844C296.107 20.9844 294.987 20.7266 294.132 20.2109C293.288 19.6953 292.866 18.8691 292.866 17.7324C292.866 16.7598 293.282 15.9629 294.114 15.3418C294.946 14.7207 296.148 14.4102 297.718 14.4102C298.105 14.4102 298.462 14.4277 298.79 14.4629C298.696 11.9902 298.65 10.7012 298.65 10.5957C298.65 9.68164 298.638 8.7207 298.614 7.71289C298.591 6.74023 298.532 6.04297 298.439 5.62109H301.128C301.058 6.19531 300.999 6.89258 300.952 7.71289V8.99609C303.144 8.9375 304.802 8.84961 305.927 8.73242L306.015 10.8594C304.843 10.9648 303.155 11.0469 300.952 11.1055C300.976 11.9375 301.046 13.2031 301.163 14.9023C303.296 15.5469 305.101 16.5664 306.577 17.9609ZM313.138 5.49805L315.599 5.60352C315.247 6.85742 315.007 8.08789 314.878 9.29492C315.371 8.49805 315.997 7.81836 316.759 7.25586C317.521 6.69336 318.365 6.41211 319.29 6.41211C320.556 6.41211 321.605 6.99219 322.437 8.15234C323.281 9.30078 323.703 10.8359 323.703 12.7578C323.703 17.3516 321.095 20.123 315.88 21.0723L314.527 19.0156C315.371 18.8867 316.109 18.7344 316.742 18.5586C317.386 18.3711 318.001 18.1191 318.587 17.8027C319.185 17.4863 319.665 17.1113 320.029 16.6777C320.404 16.2324 320.703 15.6816 320.925 15.0254C321.148 14.3691 321.259 13.6191 321.259 12.7754C321.259 11.4043 321.048 10.3496 320.626 9.61133C320.205 8.87305 319.619 8.50391 318.869 8.50391C318.201 8.50391 317.55 8.80273 316.917 9.40039C316.296 9.98633 315.804 10.707 315.441 11.5625C315.078 12.4062 314.878 13.2207 314.843 14.0059C314.82 14.6387 314.849 15.2715 314.931 15.9043L312.716 16.0449C312.576 14.9434 312.505 13.9531 312.505 13.0742C312.505 11.5391 312.669 9.63477 312.997 7.36133C313.068 6.85742 313.115 6.23633 313.138 5.49805ZM341.32 14.6562H337.049C337.4 15.4062 337.851 16.0801 338.402 16.6777C339.504 15.998 340.476 15.3242 341.32 14.6562ZM332.531 11.334V12.7754H340.213V11.334H332.531ZM340.213 8.29297H332.531V9.62891H340.213V8.29297ZM342.427 14.1641L343.834 15.2715C342.498 16.2559 341.156 17.1289 339.808 17.8906C341.144 18.8047 342.773 19.4141 344.695 19.7188C344.144 20.2695 343.687 20.9199 343.324 21.6699C341.133 21.1895 339.363 20.3867 338.015 19.2617C336.679 18.125 335.625 16.5898 334.851 14.6562H332.531V18.752C333.832 18.5645 335.22 18.3594 336.697 18.1367L336.82 20.123C334.957 20.4395 332.338 20.8613 328.963 21.3887L328.453 19.3145C328.652 19.291 328.963 19.25 329.385 19.1914C329.806 19.1328 330.123 19.0918 330.334 19.0684V6.42969H334.992V4.72461H337.207V6.42969H342.427V14.1641ZM350.131 7.18555C349.99 7.91211 349.92 8.63281 349.92 9.34766C349.897 10.7539 349.932 12.0137 350.025 13.127C350.307 16.0098 350.945 17.4512 351.941 17.4512C352.316 17.4512 352.668 17.0938 352.996 16.3789C353.336 15.6641 353.611 14.8555 353.822 13.9531L355.633 16.1152C355.047 17.627 354.461 18.7051 353.875 19.3496C353.289 19.9824 352.627 20.2988 351.889 20.2988C350.834 20.2988 349.938 19.7773 349.199 18.7344C348.461 17.6797 347.969 16.0215 347.723 13.7598C347.594 12.4238 347.529 10.8184 347.529 8.94336C347.529 8.16992 347.488 7.57227 347.406 7.15039L350.131 7.18555ZM359.043 7.55469C359.852 8.55078 360.572 9.96289 361.205 11.791C361.838 13.6191 362.207 15.248 362.313 16.6777L359.94 17.5742C359.787 15.875 359.441 14.1582 358.902 12.4238C358.375 10.6895 357.666 9.31836 356.775 8.31055L359.043 7.55469ZM367.608 4.83008L369.647 5.44531C369.237 6.60547 368.756 7.75977 368.205 8.9082V21.5293H366.166V12.3887C365.967 12.6582 365.604 13.127 365.077 13.7949C364.772 12.9746 364.373 12.2305 363.881 11.5625C364.631 10.7539 365.334 9.75195 365.991 8.55664C366.659 7.34961 367.198 6.10742 367.608 4.83008ZM375.87 16.6426H378.084C377.252 15.2832 376.514 13.7129 375.87 11.9316V16.6426ZM371.598 16.6426H373.795V12.0547C373.174 13.7891 372.442 15.3184 371.598 16.6426ZM380.844 9.99805H376.942C377.434 11.4043 378.073 12.7578 378.858 14.0586C379.655 15.3477 380.481 16.3965 381.336 17.2051C380.668 17.7324 380.135 18.2832 379.737 18.8574C379.315 18.4004 378.834 17.7676 378.295 16.959V18.541H375.87V21.4414H373.795V18.541H371.422V16.8887C370.813 17.791 370.28 18.4707 369.823 18.9277C369.33 18.2129 368.821 17.668 368.293 17.293C369.184 16.4961 370.028 15.4414 370.825 14.1289C371.621 12.8164 372.272 11.4395 372.776 9.99805H369.243V7.95898H373.795V4.84766H375.87V7.95898H380.844V9.99805ZM383.274 20.5801L382.184 19.9473C382.712 19.1973 383.016 17.873 383.098 15.9746L384.294 16.2031C384.153 18.3711 383.813 19.8301 383.274 20.5801ZM384.434 16.3438L385.348 16.2207C385.536 17.3223 385.606 18.4238 385.559 19.5254L384.557 19.6836C384.616 18.6758 384.575 17.5625 384.434 16.3438ZM385.647 16.2559L386.544 16.0801C386.895 17.1582 387.1 18.125 387.159 18.9805L386.21 19.1738C386.175 18.3418 385.987 17.3691 385.647 16.2559ZM388.425 13.5312H390.182C390.171 13.8594 390.159 14.0938 390.147 14.2344C390.018 17.2344 389.872 19.1211 389.708 19.8945C391.337 19.0742 392.444 17.9609 393.03 16.5547H390.499V11.791H393.54V10.8066H391.694V9.83984C391.132 10.3203 390.663 10.666 390.288 10.877C390.1 10.4082 389.848 9.93359 389.532 9.45312V9.75195H387.897V10.8418H389.532V12.459H387.897V13.5488H388.425V13.5312ZM384.997 12.459V13.5488H386.21V12.459H384.997ZM386.21 9.75195H384.997V10.8418H386.21V9.75195ZM386.21 7.11523H384.997V8.13477H386.21V7.11523ZM392.415 9.17188H396.475C395.632 8.36328 394.934 7.51367 394.384 6.62305C393.856 7.51367 393.2 8.36328 392.415 9.17188ZM396.844 13.3379H395.421V13.4082C395.421 13.9941 395.397 14.5273 395.35 15.0078H396.844V13.3379ZM392.239 15.0078H393.434C393.505 14.5742 393.54 14.0352 393.54 13.3906V13.3379H392.239V15.0078ZM398.69 16.5547H396.018C396.815 18.1602 397.934 19.2676 399.376 19.877C398.848 20.3457 398.403 20.9082 398.04 21.5645C396.598 20.8262 395.462 19.5664 394.63 17.7852C393.868 19.3906 392.526 20.6504 390.604 21.5645C390.323 21.0957 389.983 20.6797 389.585 20.3164C389.503 20.5508 389.426 20.709 389.356 20.791C389.087 21.1543 388.717 21.3594 388.249 21.4062C387.967 21.4648 387.446 21.4824 386.684 21.459C386.649 20.8848 386.503 20.3457 386.245 19.8418C386.561 19.877 386.936 19.8945 387.37 19.8945C387.569 19.918 387.727 19.8477 387.844 19.6836C387.985 19.5078 388.102 19.0039 388.196 18.1719L387.616 18.3828C387.487 17.6914 387.212 16.9062 386.79 16.0273L387.616 15.7285C387.897 16.2559 388.114 16.7598 388.266 17.2402C388.301 16.666 388.337 15.9922 388.372 15.2188H383.221V13.5488H383.239V5.41016H389.848V7.11523H387.897V8.13477H389.532V9.01367C390.305 8.54492 391.038 7.91211 391.729 7.11523C392.432 6.30664 392.983 5.51562 393.382 4.74219H395.245C395.784 5.60938 396.434 6.41797 397.196 7.16797C397.958 7.90625 398.719 8.45117 399.481 8.80273C399.118 9.27148 398.755 9.89844 398.391 10.6836C398.122 10.5312 397.741 10.25 397.249 9.83984V10.8066H395.421V11.791H398.69V16.5547ZM408.028 7.43164C409.2 7.57227 410.507 7.63672 411.948 7.625C413.401 7.61328 414.649 7.54883 415.692 7.43164V9.73438C413.161 9.95703 410.612 9.95703 408.046 9.73438L408.028 7.43164ZM407.413 14.8672L409.47 15.0605C409.317 15.6934 409.241 16.1914 409.241 16.5547C409.241 17.3984 410.073 17.8203 411.737 17.8203C413.167 17.8203 414.655 17.6621 416.202 17.3457L416.255 19.7715C414.966 20.0059 413.431 20.123 411.649 20.123C410.149 20.123 409.019 19.8652 408.257 19.3496C407.495 18.834 407.114 18.1133 407.114 17.1875C407.114 16.5781 407.214 15.8047 407.413 14.8672ZM402.79 6.04297L405.286 6.27148C405.181 6.54102 405.04 7.06836 404.864 7.85352C404.278 10.7012 403.985 12.8809 403.985 14.3926C403.985 14.8145 404.009 15.1953 404.056 15.5352C404.149 15.3008 404.29 14.9844 404.478 14.5859C404.677 14.1758 404.806 13.8945 404.864 13.7422L405.972 14.6035C405.28 16.6191 404.853 18.0781 404.689 18.9805C404.618 19.3086 404.583 19.584 404.583 19.8066C404.595 19.877 404.601 19.9941 404.601 20.1582C404.612 20.334 404.618 20.4629 404.618 20.5449L402.562 20.6855C402.105 19.0684 401.876 17.123 401.876 14.8496C401.876 14.2285 401.905 13.5312 401.964 12.7578C402.034 11.9727 402.099 11.3516 402.157 10.8945C402.216 10.4375 402.304 9.82227 402.421 9.04883C402.538 8.27539 402.603 7.85938 402.614 7.80078C402.731 6.95703 402.79 6.37109 402.79 6.04297Z" fill="#13586A"/>
</svg>
