<svg width="333" height="43" viewBox="0 0 333 43" fill="none" xmlns="http://www.w3.org/2000/svg">
<circle cx="18" cy="18" r="18" fill="#F3EADA"/>
<path d="M25.8516 36.2734C23.8984 36.2734 22.2773 35.6029 20.9883 34.2617C19.7122 32.9076 19.0742 31.0391 19.0742 28.6562C19.0742 26.2995 19.7383 24.4245 21.0664 23.0312C22.3945 21.625 24.0286 20.9219 25.9688 20.9219C27.6484 20.9219 29.0938 21.5534 30.3047 22.8164L28.7422 24.6914C27.8958 23.8711 26.9909 23.4609 26.0273 23.4609C24.8815 23.4609 23.9375 23.9232 23.1953 24.8477C22.4661 25.7591 22.1016 26.9961 22.1016 28.5586C22.1016 30.1602 22.4466 31.4232 23.1367 32.3477C23.8398 33.2591 24.7839 33.7148 25.9688 33.7148C27.1016 33.7148 28.1172 33.2331 29.0156 32.2695L30.5781 34.1055C29.3542 35.5508 27.7786 36.2734 25.8516 36.2734ZM33.5414 36V21.1953H36.5102V33.5195H42.5063V36H33.5414ZM49.8836 23.5195V33.6758H51.3484V36H45.45V33.6758H46.9148V23.5195H45.45V21.1953H51.3484V23.5195H49.8836ZM55.3273 36V21.1953H58.3547L62.6516 29.0859L64.1359 32.2891H64.2336C63.9732 29.7109 63.843 27.9792 63.843 27.0938V21.1953H66.6555V36H63.6477L59.3703 28.0703L57.8664 24.9062H57.7687C57.7818 25.0885 57.8273 25.5964 57.9055 26.4297C57.9966 27.25 58.0552 27.9336 58.0812 28.4805C58.1203 29.0273 58.1398 29.5547 58.1398 30.0625V36H55.3273ZM75.107 23.5195V33.6758H76.5719V36H70.6734V33.6758H72.1383V23.5195H70.6734V21.1953H76.5719V23.5195H75.107ZM86.5859 36.2734C84.6328 36.2734 83.0117 35.6029 81.7227 34.2617C80.4466 32.9076 79.8086 31.0391 79.8086 28.6562C79.8086 26.2995 80.4727 24.4245 81.8008 23.0312C83.1289 21.625 84.763 20.9219 86.7031 20.9219C88.3828 20.9219 89.8281 21.5534 91.0391 22.8164L89.4766 24.6914C88.6302 23.8711 87.7253 23.4609 86.7617 23.4609C85.6159 23.4609 84.6719 23.9232 83.9297 24.8477C83.2005 25.7591 82.8359 26.9961 82.8359 28.5586C82.8359 30.1602 83.181 31.4232 83.8711 32.3477C84.5742 33.2591 85.5182 33.7148 86.7031 33.7148C87.8359 33.7148 88.8516 33.2331 89.75 32.2695L91.3125 34.1055C90.0885 35.5508 88.513 36.2734 86.5859 36.2734ZM99.407 36V21.1953H108.528V23.6562H102.376V27.5234H107.63V30.0039H102.376V36H99.407ZM122.175 34.2031C120.964 35.5833 119.369 36.2734 117.39 36.2734C115.411 36.2734 113.809 35.5833 112.585 34.2031C111.374 32.8099 110.769 30.9219 110.769 28.5391C110.769 26.1693 111.374 24.3073 112.585 22.9531C113.796 21.599 115.398 20.9219 117.39 20.9219C119.382 20.9219 120.984 21.599 122.195 22.9531C123.405 24.3073 124.011 26.1693 124.011 28.5391C124.011 30.9219 123.399 32.8099 122.175 34.2031ZM114.753 32.3281C115.404 33.2526 116.283 33.7148 117.39 33.7148C118.497 33.7148 119.376 33.2461 120.027 32.3086C120.678 31.3711 121.003 30.1146 121.003 28.5391C121.003 26.9635 120.678 25.7266 120.027 24.8281C119.376 23.9167 118.497 23.4609 117.39 23.4609C116.283 23.4609 115.404 23.9102 114.753 24.8086C114.115 25.707 113.796 26.9505 113.796 28.5391C113.796 30.1276 114.115 31.3906 114.753 32.3281ZM130.47 23.5391V28.0508H132.384C134.351 28.0508 135.334 27.263 135.334 25.6875C135.334 24.9193 135.086 24.3724 134.591 24.0469C134.11 23.7083 133.374 23.5391 132.384 23.5391H130.47ZM138.869 36H135.568L132.521 30.3945H130.47V36H127.502V21.1953H132.658C136.369 21.1953 138.224 22.6927 138.224 25.6875C138.224 27.7969 137.287 29.2161 135.412 29.9453L138.869 36ZM149.366 36V30.5703L144.932 21.1953H148.077L149.541 24.8086C150.297 26.7357 150.726 27.8229 150.83 28.0703H150.909C151.521 26.5859 151.963 25.4987 152.237 24.8086L153.702 21.1953H156.787L152.334 30.5703V36H149.366ZM169.38 34.2031C168.169 35.5833 166.574 36.2734 164.595 36.2734C162.615 36.2734 161.014 35.5833 159.79 34.2031C158.579 32.8099 157.973 30.9219 157.973 28.5391C157.973 26.1693 158.579 24.3073 159.79 22.9531C161.001 21.599 162.602 20.9219 164.595 20.9219C166.587 20.9219 168.188 21.599 169.399 22.9531C170.61 24.3073 171.216 26.1693 171.216 28.5391C171.216 30.9219 170.604 32.8099 169.38 34.2031ZM161.958 32.3281C162.609 33.2526 163.488 33.7148 164.595 33.7148C165.701 33.7148 166.58 33.2461 167.231 32.3086C167.882 31.3711 168.208 30.1146 168.208 28.5391C168.208 26.9635 167.882 25.7266 167.231 24.8281C166.58 23.9167 165.701 23.4609 164.595 23.4609C163.488 23.4609 162.609 23.9102 161.958 24.8086C161.32 25.707 161.001 26.9505 161.001 28.5391C161.001 30.1276 161.32 31.3906 161.958 32.3281ZM180.39 36.2734C176.549 36.2734 174.628 33.9622 174.628 29.3398V21.1953H177.597V29.5938C177.597 31.0781 177.831 32.1393 178.3 32.7773C178.782 33.4023 179.478 33.7148 180.39 33.7148C181.327 33.7148 182.037 33.3958 182.519 32.7578C183.014 32.1198 183.261 31.0651 183.261 29.5938V21.1953H186.113V29.3398C186.113 33.9622 184.205 36.2734 180.39 36.2734ZM208.041 21.3906L206.459 22.0938C205.808 20.8177 205.267 19.8997 204.837 19.3398L206.42 18.6758C207.084 19.6003 207.624 20.5052 208.041 21.3906ZM194.584 20.1016L197.533 20.3945C197.455 20.7591 197.344 21.306 197.201 22.0352C197.162 22.2174 197.09 22.543 196.986 23.0117C196.895 23.4674 196.823 23.8255 196.771 24.0859C197.657 24.0339 198.21 24.0078 198.431 24.0078C200.814 24.0078 202.005 25.2643 202.005 27.7773C202.005 31.0716 201.634 33.4805 200.892 35.0039C200.58 35.668 200.157 36.1367 199.623 36.4102C199.102 36.6836 198.438 36.8203 197.63 36.8203C196.836 36.8203 196.048 36.7292 195.267 36.5469L194.837 33.9297C195.801 34.2031 196.615 34.3398 197.279 34.3398C197.982 34.3398 198.47 34.0534 198.744 33.4805C199.278 32.4128 199.545 30.6029 199.545 28.0508C199.545 27.3086 199.395 26.8268 199.095 26.6055C198.796 26.3711 198.308 26.2539 197.63 26.2539C197.474 26.2539 197.018 26.2799 196.263 26.332C195.039 31.0326 193.698 34.5612 192.24 36.918L189.642 35.8828C191.257 33.6823 192.585 30.5964 193.627 26.625C192.871 26.7031 192.305 26.7747 191.927 26.8398C191.315 26.9049 190.586 27.0026 189.74 27.1328L189.505 24.457C189.857 24.4831 190.56 24.4831 191.615 24.457C192.24 24.431 193.093 24.3789 194.173 24.3008C194.46 22.6732 194.597 21.2734 194.584 20.1016ZM205.658 22.3281L204.623 22.7578C205.17 23.6172 205.762 24.75 206.4 26.1562C207.051 27.5495 207.533 28.7148 207.845 29.6523L205.326 30.8438C205.039 29.6328 204.577 28.2917 203.939 26.8203C203.301 25.349 202.65 24.2031 201.986 23.3828L203.822 22.6016C203.236 21.4427 202.787 20.6549 202.474 20.2383L204.056 19.5742C204.499 20.2122 205.033 21.1302 205.658 22.3281ZM218.699 25.9805V30.9023C219.337 29.9258 219.786 28.6497 220.047 27.0742C219.799 27.2174 219.656 27.2956 219.617 27.3086C219.409 26.8789 219.103 26.4362 218.699 25.9805ZM215.613 30.7656H216.746V29.125H215.613V30.7656ZM212.918 29.125V29.4961C212.918 30.043 212.911 30.4661 212.898 30.7656H214.031V29.125H212.918ZM215.008 22.7383H213.406C213.315 22.9596 213.087 23.4414 212.723 24.1836H214.461C214.695 23.6497 214.878 23.168 215.008 22.7383ZM215.613 25.9219V27.4258H216.746V25.9219H215.613ZM212.918 25.9219V27.4258H214.031V25.9219H212.918ZM228.367 32.3477V34.3789H224.949V37.6211H222.684V34.3789H219.012V32.3477H222.684V30.5117H221.043C220.783 31.1497 220.496 31.7031 220.184 32.1719C219.741 31.8333 219.246 31.5404 218.699 31.293V35.4531C218.699 36.4297 218.439 37.0547 217.918 37.3281C217.423 37.5755 216.538 37.6992 215.262 37.6992C215.184 37.1003 214.962 36.4427 214.598 35.7266C215.118 35.7526 215.724 35.7656 216.414 35.7656C216.635 35.7526 216.746 35.6354 216.746 35.4141V32.5039H212.762C212.527 34.7956 212 36.5664 211.18 37.8164C210.659 37.3346 210.112 36.9831 209.539 36.7617C209.956 36.1237 210.281 35.3424 210.516 34.418C210.75 33.4805 210.887 32.6667 210.926 31.9766C210.978 31.2865 211.004 30.4596 211.004 29.4961V26.625C210.405 26.026 209.865 25.5768 209.383 25.2773C210.06 24.5612 210.659 23.6628 211.18 22.582C211.701 21.4883 212.104 20.3229 212.391 19.0859L214.5 19.5352L214.09 20.9414H215.965L216.199 20.8828L217.547 21.7031C217.312 22.3542 216.954 23.181 216.473 24.1836H217.449V24.2227H218.699V25.4922C220.118 24.8411 220.965 23.6953 221.238 22.0547H219.012V20.1016H226.414V20.1211H227.859C227.846 20.4727 227.833 20.7331 227.82 20.9023C227.755 22.543 227.671 23.7344 227.566 24.4766C227.475 25.2188 227.326 25.7201 227.117 25.9805C226.818 26.3581 226.382 26.5794 225.809 26.6445C225.418 26.6966 224.76 26.7096 223.836 26.6836C223.797 26.0195 223.608 25.4076 223.27 24.8477C223.699 24.8867 224.194 24.9062 224.754 24.9062C225.014 24.9062 225.203 24.8346 225.32 24.6914C225.503 24.4701 225.626 23.5911 225.691 22.0547H223.367C223.198 23.1875 222.885 24.151 222.43 24.9453C221.974 25.7396 221.271 26.4036 220.32 26.9375L222.039 27.2695C222 27.4779 221.896 27.8945 221.727 28.5195H222.684V26.7617H224.949V28.5195H228.016V30.5117H224.949V32.3477H228.367ZM236.35 21.1562L234.924 23.0703C234.143 22.3151 232.958 21.5924 231.37 20.9023L232.698 19.1641C233.336 19.4245 234.006 19.7435 234.709 20.1211C235.413 20.4857 235.959 20.8307 236.35 21.1562ZM235.256 26.4688L233.87 28.4219C233.062 27.6927 231.851 26.9831 230.237 26.293L231.526 24.5156C233.232 25.1667 234.475 25.8177 235.256 26.4688ZM234.358 29.5156L236.135 31.0391C235.107 33.3047 234.006 35.4466 232.834 37.4648L230.764 35.9414C232.027 34.0273 233.225 31.8854 234.358 29.5156ZM242.639 24.3594V26C242.639 26.651 242.62 27.3086 242.58 27.9727H245.159V24.3594H242.639ZM248.889 30.2188H244.065C244.573 31.4818 245.256 32.5885 246.116 33.5391C246.988 34.4896 248.01 35.2057 249.182 35.6875C248.479 36.2995 247.919 36.9961 247.502 37.7773C245.08 36.5794 243.264 34.4375 242.053 31.3516C241.272 34.1901 239.534 36.3451 236.838 37.8164C236.656 37.556 236.37 37.2435 235.979 36.8789C235.588 36.5273 235.237 36.2604 234.924 36.0781C237.541 34.737 239.182 32.7839 239.846 30.2188H235.979V27.9727H240.217C240.256 27.3086 240.276 26.651 240.276 26V24.3594H236.936V22.1133H240.276V19.0859H242.639V22.1133H247.463V27.9727H248.889V30.2188ZM258.298 29.418C258.298 29.8607 258.447 30.2188 258.747 30.4922C259.046 30.7656 259.398 30.9023 259.802 30.9023C260.257 30.9023 260.615 30.7135 260.876 30.3359C261.149 29.9453 261.227 29.3529 261.11 28.5586C260.85 28.0898 260.414 27.8555 259.802 27.8555C259.398 27.8555 259.046 27.9922 258.747 28.2656C258.447 28.5391 258.298 28.9232 258.298 29.418ZM268.845 22.2305L268.825 24.5742C267.497 24.5091 265.583 24.4766 263.083 24.4766C263.096 25.1406 263.102 26.1237 263.102 27.4258C263.597 28.1549 263.845 29.0664 263.845 30.1602C263.845 30.707 263.779 31.2474 263.649 31.7812C263.532 32.3021 263.317 32.849 263.005 33.4219C262.692 33.9948 262.302 34.5221 261.833 35.0039C261.364 35.4857 260.759 35.9349 260.016 36.3516C259.274 36.7812 258.434 37.1263 257.497 37.3867L255.387 35.2578C257.666 34.763 259.281 34.0078 260.231 32.9922C259.867 33.0703 259.567 33.1094 259.333 33.1094C258.473 33.1094 257.686 32.7839 256.97 32.1328C256.266 31.4818 255.915 30.5898 255.915 29.457C255.915 28.3633 256.299 27.4779 257.067 26.8008C257.835 26.1107 258.773 25.7656 259.88 25.7656C260.166 25.7656 260.427 25.7852 260.661 25.8242L260.622 24.4961C258.096 24.5352 255.264 24.6393 252.126 24.8086L252.067 22.4062C252.953 22.4062 254.509 22.3867 256.735 22.3477C258.975 22.2956 260.257 22.2695 260.583 22.2695C260.583 21.957 260.576 21.7552 260.563 21.6641C260.511 20.7656 260.453 20.1927 260.387 19.9453H263.278C263.226 20.2057 263.174 20.7721 263.122 21.6445C263.122 21.6836 263.115 21.7682 263.102 21.8984C263.102 22.0286 263.102 22.1393 263.102 22.2305H268.845ZM280.655 34.8086C280.955 34.8086 281.339 34.7826 281.808 34.7305C281.743 34.0794 281.534 33.5651 281.183 33.1875C280.844 32.8099 280.408 32.6211 279.874 32.6211C279.51 32.6211 279.21 32.7122 278.976 32.8945C278.754 33.0768 278.644 33.2982 278.644 33.5586C278.644 33.9232 278.833 34.2227 279.21 34.457C279.588 34.6914 280.07 34.8086 280.655 34.8086ZM285.011 20.5117L286.3 22.2891C286.222 22.3411 285.76 22.6406 284.913 23.1875C284.601 23.4089 284.197 23.7148 283.702 24.1055C283.208 24.4961 282.596 24.9974 281.866 25.6094C281.137 26.2083 280.695 26.5664 280.538 26.6836C281.085 26.5404 281.704 26.4688 282.394 26.4688C284.073 26.4688 285.48 26.944 286.613 27.8945C287.745 28.832 288.312 30.0169 288.312 31.4492C288.312 33.0898 287.693 34.431 286.456 35.4727C285.219 36.5143 283.448 37.0352 281.144 37.0352C279.751 37.0352 278.598 36.7357 277.687 36.1367C276.775 35.5508 276.32 34.7695 276.32 33.793C276.32 32.9727 276.652 32.2565 277.316 31.6445C277.993 31.0326 278.846 30.7266 279.874 30.7266C281.046 30.7266 282.003 31.0456 282.745 31.6836C283.488 32.3216 283.937 33.1289 284.093 34.1055C285.174 33.5195 285.714 32.6146 285.714 31.3906C285.714 30.5182 285.323 29.8086 284.542 29.2617C283.761 28.7018 282.784 28.4219 281.613 28.4219C280.193 28.4219 278.943 28.7539 277.863 29.418C276.795 30.082 275.662 31.0911 274.464 32.4453L272.667 30.5703C273.201 30.1406 274.086 29.4115 275.323 28.3828C276.573 27.3411 277.342 26.7031 277.628 26.4688C277.732 26.3776 278.351 25.8633 279.484 24.9258C280.616 23.9883 281.378 23.3503 281.769 23.0117C280.271 23.0378 278.676 23.1159 276.984 23.2461C276.398 23.2721 275.857 23.3242 275.363 23.4023L275.284 20.8242C275.909 20.8893 276.515 20.9219 277.101 20.9219C279.874 20.9219 282.003 20.8568 283.488 20.7266C284.113 20.6875 284.62 20.6159 285.011 20.5117ZM295.826 24.1445V21.5078C297.31 21.6641 299.114 21.7422 301.236 21.7422C303.293 21.7422 305.207 21.651 306.978 21.4688V24.125C304.765 24.2812 302.857 24.3594 301.255 24.3594C299.615 24.3594 297.805 24.2878 295.826 24.1445ZM294.908 29.6523L297.505 29.9062C297.284 30.8177 297.173 31.4818 297.173 31.8984C297.173 32.5625 297.505 33.0964 298.17 33.5C298.847 33.8906 299.869 34.0859 301.236 34.0859C303.996 34.0859 306.314 33.8255 308.189 33.3047L308.209 36.0781C306.386 36.5339 304.094 36.7617 301.334 36.7617C299.094 36.7617 297.395 36.3971 296.236 35.668C295.09 34.9388 294.517 33.8906 294.517 32.5234C294.517 31.8464 294.647 30.8893 294.908 29.6523ZM326.855 22.0547L328.223 24.3594C327.48 24.7891 326.829 25.1406 326.27 25.4141C326.139 25.4792 325.775 25.6615 325.176 25.9609C324.577 26.2604 324.076 26.5143 323.672 26.7227C323.281 26.918 322.799 27.1719 322.227 27.4844C321.654 27.7969 321.159 28.0898 320.742 28.3633C318.906 29.5482 317.988 30.7461 317.988 31.957C317.988 33.4154 319.362 34.1445 322.109 34.1445C324.271 34.1445 326.432 33.9036 328.594 33.4219L328.555 36.2734C326.549 36.599 324.427 36.7617 322.188 36.7617C317.578 36.7617 315.273 35.2643 315.273 32.2695C315.273 30.4076 316.367 28.6628 318.555 27.0352C317.669 25.3945 316.738 23.4284 315.762 21.1367L318.262 20.1211C318.913 21.8659 319.74 23.6953 320.742 25.6094C321.367 25.2448 322.194 24.7891 323.223 24.2422C324.251 23.6953 324.857 23.3698 325.039 23.2656C325.938 22.7188 326.543 22.3151 326.855 22.0547Z" fill="#13586A"/>
</svg>
