<svg width="900" height="324" viewBox="0 0 900 324" fill="none" xmlns="http://www.w3.org/2000/svg">
<path d="M571.256 161.677C571.256 130.934 559.579 101.339 538.587 78.8794C517.595 56.4194 488.856 42.7712 458.184 40.6958C427.512 38.6204 397.196 48.2727 373.37 67.7002C349.545 87.1276 333.987 114.88 329.846 145.342C325.705 175.804 333.288 206.702 351.063 231.785C368.838 256.868 395.476 274.264 425.589 280.452C455.702 286.64 487.042 281.16 513.268 265.119C539.493 249.078 558.647 223.675 566.855 194.048L451.297 162.036C451.205 162.365 450.992 162.648 450.701 162.826C450.41 163.004 450.061 163.065 449.727 162.996C449.392 162.928 449.096 162.734 448.899 162.456C448.701 162.177 448.617 161.834 448.663 161.495C448.709 161.157 448.882 160.848 449.147 160.632C449.411 160.417 449.748 160.309 450.089 160.332C450.43 160.355 450.749 160.507 450.982 160.757C451.216 161.006 451.345 161.335 451.345 161.677H571.256Z" fill="#007973" stroke="white"/>
<path d="M566.855 194.049C569.776 183.506 571.256 172.616 571.256 161.677H451.346C451.346 161.798 451.329 161.919 451.297 162.036L566.855 194.049Z" fill="#219653" fill-opacity="0.8" stroke="white"/>
<path d="M329.847 145.342L303.146 141.712" stroke="#007973"/>
<path d="M242.078 130.484L243.828 131.015C243.422 132.182 243.01 133.187 242.594 134.031V145.328H240.781V137.187C240.448 137.666 240.099 138.114 239.734 138.531C239.505 137.885 239.182 137.234 238.766 136.578C239.432 135.848 240.057 134.942 240.641 133.859C241.234 132.765 241.714 131.64 242.078 130.484ZM249.594 140.609V138.921H247.969V140.609H249.594ZM251.484 136.265H249.484V137.609H251.063V141.937H246.609V137.609H248.016V136.265H246.188V134.875H248.016V133.234H249.484V134.875H251.484V136.265ZM245.797 142.781H251.844V132.906H245.797V142.781ZM244.063 131.281H253.656V145.25H251.844V144.421H245.797V145.375H244.063V131.281ZM263.469 130.828L263.422 131.656C263.443 132.052 263.474 132.453 263.516 132.859C263.568 133.265 263.661 133.807 263.797 134.484C263.932 135.151 264.099 135.791 264.297 136.406C264.495 137.01 264.771 137.677 265.125 138.406C265.49 139.125 265.896 139.786 266.344 140.39C266.802 140.994 267.37 141.583 268.047 142.156C268.734 142.718 269.49 143.187 270.313 143.562C269.635 144.114 269.141 144.671 268.828 145.234C265.807 143.734 263.714 141.046 262.547 137.171C261.484 140.817 259.51 143.515 256.625 145.265C256.229 144.713 255.693 144.203 255.016 143.734C255.641 143.39 256.214 143 256.734 142.562C257.266 142.114 257.724 141.677 258.109 141.25C258.495 140.812 258.844 140.317 259.156 139.765C259.479 139.213 259.745 138.713 259.953 138.265C260.161 137.817 260.344 137.302 260.5 136.718C260.667 136.125 260.792 135.635 260.875 135.25C260.958 134.864 261.031 134.395 261.094 133.843C261.156 133.281 261.193 132.875 261.203 132.625C261.224 132.375 261.245 132.026 261.266 131.578C261.286 131.13 261.297 130.88 261.297 130.828H263.469ZM271.781 139.781L273.359 140.046C273.151 141.869 272.823 143.26 272.375 144.218C271.927 143.937 271.448 143.692 270.938 143.484C271.344 142.682 271.625 141.447 271.781 139.781ZM275.25 140.062L276.594 139.625C277.052 140.645 277.38 141.614 277.578 142.531L276.172 143.046C276.026 142.234 275.719 141.239 275.25 140.062ZM282.563 141.39V143.265H286.016V144.921H277.031V143.265H280.688V141.39H277.969V139.734H280.688V137.828H282.563V139.734H285.406V141.39H282.563ZM283.078 132.812H279.969C280.365 133.489 280.88 134.125 281.516 134.718C282.141 134.145 282.661 133.51 283.078 132.812ZM284.359 131.109L285.656 131.703C285.104 133.328 284.234 134.697 283.047 135.812C284.026 136.395 285.125 136.817 286.344 137.078C285.896 137.494 285.51 138.005 285.188 138.609C283.854 138.244 282.651 137.692 281.578 136.953C280.505 137.661 279.276 138.234 277.891 138.671C277.734 138.317 277.448 137.864 277.031 137.312C277.313 138.01 277.495 138.557 277.578 138.953L276.234 139.562C276.182 139.333 276.12 139.067 276.047 138.765L275.219 138.828V145.406H273.547V138.937C272.151 139.041 271.385 139.098 271.25 139.109L271.094 137.437L272.266 137.39C272.63 136.932 272.88 136.604 273.016 136.406C272.536 135.708 271.901 134.973 271.109 134.203L272.016 132.953C272.047 132.984 272.104 133.036 272.188 133.109C272.271 133.171 272.328 133.218 272.359 133.25C272.828 132.385 273.219 131.458 273.531 130.468L275.172 131.125C274.297 132.729 273.703 133.776 273.391 134.265C273.536 134.421 273.724 134.645 273.953 134.937C274.474 134.062 274.943 133.197 275.359 132.343L276.906 133.078C275.896 134.671 274.922 136.088 273.984 137.328L275.469 137.265C275.396 137.098 275.203 136.713 274.891 136.109L276.156 135.578C276.427 136.057 276.682 136.567 276.922 137.109C278.109 136.807 279.177 136.359 280.125 135.765C279.385 135.005 278.75 134.13 278.219 133.14L279.219 132.812H277.391V131.187H284.031L284.359 131.109ZM298.484 143.234V141.843H290.938V143.234H298.484ZM292.219 136.734V137.89H297V136.734H292.219ZM298.844 139.281H295.406C295.292 139.572 295.161 139.88 295.016 140.203H300.375V145.421H298.484V144.859H290.938V145.421H289.141V140.203H293.141C293.224 139.89 293.297 139.583 293.359 139.281H290.484V135.328H298.844V139.281ZM299.219 132.906H301.453V136.39H299.641V134.515H289.672V136.39H287.922V132.906H289.891C289.641 132.458 289.281 131.937 288.813 131.343L290.422 130.593C291.172 131.447 291.661 132.135 291.891 132.656L291.359 132.906H293.828C293.609 132.312 293.26 131.656 292.781 130.937L294.438 130.343C295.021 131.135 295.432 131.854 295.672 132.5L294.641 132.906H297.141C297.797 132.062 298.281 131.26 298.594 130.5L300.563 131.218C300.042 131.906 299.594 132.468 299.219 132.906Z" fill="#007973"/>
<path d="M570.15 178.011L596.851 181.641" stroke="#219653" stroke-opacity="0.8"/>
<path d="M598.531 179.156L600.109 179.421C599.901 181.244 599.573 182.635 599.125 183.593C598.677 183.312 598.198 183.067 597.688 182.859C598.094 182.057 598.375 180.822 598.531 179.156ZM602 179.437L603.344 179C603.802 180.02 604.13 180.989 604.328 181.906L602.922 182.421C602.776 181.609 602.469 180.614 602 179.437ZM609.312 180.765V182.64H612.766V184.296H603.781V182.64H607.438V180.765H604.719V179.109H607.438V177.203H609.312V179.109H612.156V180.765H609.312ZM609.828 172.187H606.719C607.115 172.864 607.63 173.5 608.266 174.093C608.891 173.52 609.411 172.885 609.828 172.187ZM611.109 170.484L612.406 171.078C611.854 172.703 610.984 174.072 609.797 175.187C610.776 175.77 611.875 176.192 613.094 176.453C612.646 176.869 612.26 177.38 611.938 177.984C610.604 177.619 609.401 177.067 608.328 176.328C607.255 177.036 606.026 177.609 604.641 178.046C604.484 177.692 604.198 177.239 603.781 176.687C604.062 177.385 604.245 177.932 604.328 178.328L602.984 178.937C602.932 178.708 602.87 178.442 602.797 178.14L601.969 178.203V184.781H600.297V178.312C598.901 178.416 598.135 178.473 598 178.484L597.844 176.812L599.016 176.765C599.38 176.307 599.63 175.979 599.766 175.781C599.286 175.083 598.651 174.348 597.859 173.578L598.766 172.328C598.797 172.359 598.854 172.411 598.938 172.484C599.021 172.546 599.078 172.593 599.109 172.625C599.578 171.76 599.969 170.833 600.281 169.843L601.922 170.5C601.047 172.104 600.453 173.151 600.141 173.64C600.286 173.796 600.474 174.02 600.703 174.312C601.224 173.437 601.693 172.572 602.109 171.718L603.656 172.453C602.646 174.046 601.672 175.463 600.734 176.703L602.219 176.64C602.146 176.473 601.953 176.088 601.641 175.484L602.906 174.953C603.177 175.432 603.432 175.942 603.672 176.484C604.859 176.182 605.927 175.734 606.875 175.14C606.135 174.38 605.5 173.505 604.969 172.515L605.969 172.187H604.141V170.562H610.781L611.109 170.484ZM625.234 182.609V181.218H617.688V182.609H625.234ZM618.969 176.109V177.265H623.75V176.109H618.969ZM625.594 178.656H622.156C622.042 178.947 621.911 179.255 621.766 179.578H627.125V184.796H625.234V184.234H617.688V184.796H615.891V179.578H619.891C619.974 179.265 620.047 178.958 620.109 178.656H617.234V174.703H625.594V178.656ZM625.969 172.281H628.203V175.765H626.391V173.89H616.422V175.765H614.672V172.281H616.641C616.391 171.833 616.031 171.312 615.562 170.718L617.172 169.968C617.922 170.822 618.411 171.51 618.641 172.031L618.109 172.281H620.578C620.359 171.687 620.01 171.031 619.531 170.312L621.188 169.718C621.771 170.51 622.182 171.229 622.422 171.875L621.391 172.281H623.891C624.547 171.437 625.031 170.635 625.344 169.875L627.312 170.593C626.792 171.281 626.344 171.843 625.969 172.281ZM639.266 179.953H635.562L635.078 180.703C635.922 180.88 636.88 181.104 637.953 181.375C638.484 180.989 638.922 180.515 639.266 179.953ZM638.266 175.015V177.359H637L637.188 177.406C637.135 177.5 637.036 177.656 636.891 177.875C636.755 178.093 636.651 178.265 636.578 178.39H644.656V179.953H641.391C641.026 180.744 640.578 181.406 640.047 181.937C641.651 182.385 643.005 182.807 644.109 183.203L642.953 184.796C641.651 184.276 640.099 183.755 638.297 183.234C636.776 184.046 634.365 184.583 631.062 184.843C630.938 184.291 630.682 183.739 630.297 183.187C632.599 183.083 634.365 182.848 635.594 182.484C635.438 182.453 635.188 182.395 634.844 182.312C634.51 182.229 634.255 182.166 634.078 182.125L633.812 182.5L632.016 181.859C632.141 181.703 632.599 181.067 633.391 179.953H630.109V178.39H634.438C634.948 177.557 635.245 177.062 635.328 176.906L636.406 177.203V174.953C634.917 176.411 633.083 177.453 630.906 178.078C630.573 177.526 630.193 177.041 629.766 176.625C631.557 176.197 633.115 175.505 634.438 174.546H630.25V173H636.406V171.968C634.979 172.052 633.453 172.104 631.828 172.125C631.776 171.677 631.635 171.203 631.406 170.703C635.917 170.619 639.328 170.333 641.641 169.843L642.984 171.156C641.578 171.458 640.005 171.682 638.266 171.828V173H644.406V174.546H640.219C641.542 175.453 643.083 176.098 644.844 176.484C644.333 176.973 643.932 177.494 643.641 178.046C641.516 177.421 639.724 176.411 638.266 175.015ZM651.828 170.343V171.796H646.75V170.343H651.828ZM652.484 172.5V174H645.906V172.5H652.484ZM650.125 180.609H648.266V182.453H650.125V180.609ZM651.797 179.109V183.953H648.266V184.593H646.641V179.109H651.797ZM646.672 178.328V176.89H651.828V178.328H646.672ZM646.672 176.171V174.718H651.828V176.171H646.672ZM657.484 182.75H658.672C658.88 182.75 659.016 182.609 659.078 182.328C659.151 182.036 659.208 181.411 659.25 180.453C659.76 180.817 660.333 181.078 660.969 181.234C660.875 182.484 660.677 183.348 660.375 183.828C660.083 184.317 659.578 184.562 658.859 184.562H657.203C656.38 184.562 655.823 184.38 655.531 184.015C655.24 183.651 655.094 182.953 655.094 181.921V178.296L652.469 178.718L652.141 176.875L655.094 176.437V173.031C654.115 173.218 653.391 173.348 652.922 173.421C652.839 172.932 652.635 172.401 652.312 171.828C655.083 171.348 657.229 170.739 658.75 170L660.328 171.531C659.391 171.937 658.281 172.296 657 172.609V176.125L660.594 175.578L660.906 177.359L657 177.984V181.921C657 182.286 657.026 182.515 657.078 182.609C657.141 182.703 657.276 182.75 657.484 182.75Z" fill="#219653" fill-opacity="0.8"/>
</svg>
