<svg width="145" height="64" viewBox="0 0 145 64" fill="none" xmlns="http://www.w3.org/2000/svg">
<circle cx="24" cy="24" r="24" fill="#F3EADA"/>
<path d="M29.1562 52L24.5625 28.3125H29.4062L31.2812 39.875C31.3854 40.6667 31.5625 41.9062 31.8125 43.5938C32.0625 45.2812 32.25 46.5625 32.375 47.4375H32.5C32.5 47.4167 33.0104 44.8958 34.0312 39.875L36.7812 28.3125H40.8125L43.5625 39.875C43.8958 41.5 44.3958 44.0208 45.0625 47.4375H45.2188C45.3438 46.4583 45.5312 45.0729 45.7812 43.2812C46.0521 41.4896 46.2188 40.3542 46.2812 39.875L48.125 28.3125H52.625L48.25 52H42.375L39.7188 40.2812C39.2188 37.8229 38.875 36 38.6875 34.8125H38.5625C38.2292 36.75 37.8854 38.5729 37.5312 40.2812L34.9375 52H29.1562ZM74.1787 49.125C72.2412 51.3333 69.6892 52.4375 66.5225 52.4375C63.3558 52.4375 60.7933 51.3333 58.835 49.125C56.8975 46.8958 55.9287 43.875 55.9287 40.0625C55.9287 36.2708 56.8975 33.2917 58.835 31.125C60.7725 28.9583 63.335 27.875 66.5225 27.875C69.71 27.875 72.2725 28.9583 74.21 31.125C76.1475 33.2917 77.1162 36.2708 77.1162 40.0625C77.1162 43.875 76.1371 46.8958 74.1787 49.125ZM62.3037 46.125C63.3454 47.6042 64.7517 48.3438 66.5225 48.3438C68.2933 48.3438 69.6996 47.5938 70.7412 46.0938C71.7829 44.5938 72.3037 42.5833 72.3037 40.0625C72.3037 37.5417 71.7829 35.5625 70.7412 34.125C69.6996 32.6667 68.2933 31.9375 66.5225 31.9375C64.7517 31.9375 63.3454 32.6562 62.3037 34.0938C61.2829 35.5312 60.7725 37.5208 60.7725 40.0625C60.7725 42.6042 61.2829 44.625 62.3037 46.125ZM87.4512 32.0625V39.2812H90.5137C93.6596 39.2812 95.2325 38.0208 95.2325 35.5C95.2325 34.2708 94.8367 33.3958 94.045 32.875C93.2742 32.3333 92.0971 32.0625 90.5137 32.0625H87.4512ZM100.889 52H95.6075L90.7325 43.0312H87.4512V52H82.7012V28.3125H90.9512C96.8887 28.3125 99.8575 30.7083 99.8575 35.5C99.8575 38.875 98.3575 41.1458 95.3575 42.3125L100.889 52ZM105.474 52V28.3125H110.224V38.5938H110.317L118.161 28.3125H123.38L116.13 37.625L124.661 52H119.442L113.317 41.375L110.224 45.3438V52H105.474ZM134.746 52.4375C131.392 52.4375 128.517 51.2917 126.121 49L128.84 45.7188C130.736 47.4688 132.746 48.3438 134.871 48.3438C136.08 48.3438 137.007 48.1042 137.652 47.625C138.298 47.1458 138.621 46.4792 138.621 45.625C138.621 45.2083 138.548 44.8542 138.402 44.5625C138.277 44.25 138.007 43.9583 137.59 43.6875C137.194 43.4167 136.861 43.2188 136.59 43.0938C136.319 42.9688 135.819 42.75 135.09 42.4375L131.902 41.0938C128.715 39.7604 127.121 37.6354 127.121 34.7188C127.121 32.7604 127.882 31.1354 129.402 29.8438C130.944 28.5312 132.913 27.875 135.309 27.875C136.684 27.875 138.027 28.1458 139.34 28.6875C140.652 29.2083 141.777 29.9479 142.715 30.9062L140.34 33.875C138.798 32.5833 137.121 31.9375 135.309 31.9375C134.246 31.9375 133.402 32.1667 132.777 32.625C132.173 33.0625 131.871 33.6667 131.871 34.4375C131.871 35.1667 132.152 35.7396 132.715 36.1562C133.277 36.5521 134.142 36.9792 135.309 37.4375C135.434 37.4792 135.527 37.5104 135.59 37.5312L138.684 38.8438C140.225 39.4896 141.402 40.3229 142.215 41.3438C143.048 42.3438 143.465 43.6562 143.465 45.2812C143.465 47.3021 142.673 49 141.09 50.375C139.507 51.75 137.392 52.4375 134.746 52.4375Z" fill="#13586A"/>
</svg>
