<?xml version="1.0" encoding="utf-8"?>
<!-- Generator: Adobe Illustrator 24.1.2, SVG Export Plug-In . SVG Version: 6.00 Build 0)  -->
<svg version="1.1" id="レイヤー_1" xmlns="http://www.w3.org/2000/svg" xmlns:xlink="http://www.w3.org/1999/xlink" x="0px"
	 y="0px" viewBox="0 0 152 68" style="enable-background:new 0 0 152 68;" xml:space="preserve">
<style type="text/css">
	.st0{fill:#13586A;}
	.st1{font-family:'NanumBrush';}
	.st2{font-size:67px;}
	.st3{letter-spacing:2;}
	.st4{fill:#F3EADA;}
</style>
<g>
	<text transform="matrix(1 0 0 1 58.1768 63.7744)" class="st0 st1 st2 st3">uki</text>
	<path class="st0" d="M43.9,57.2c-0.5-2.5-0.3-2.1-0.9-4.9c-0.5-2.4-1.2-5.7-2.5-8.7c-0.1-0.3-0.8-1.8-1.8-3.7
		c-1-1.8-1.1-1.7-2.9-4.6c-1.3-2.1-1.7-2.9-2.9-4.6c-0.5-0.8-1-1.4-1.3-1.8c0.2-0.1,0.6-0.2,1-0.2c0.6,0.1,0.9,0.5,1.2,0.8
		c0.8,0.9,1.3,0.9,2.3,1.6c1.2,0.8,3.2,2.7,5,5.2c1.8,2.4,2.8,4.8,3.3,6.5c0.3-5.5,1.6-9.2,2.8-11.7c0.4-0.8,1.4-2.2,2.2-4.5
		c0.3-0.8,0.4-1.2,0.7-2.3c0.5-1.7,0.5-1.4,0.6-2c0.3-1.3,0.3-1.5,0.6-2.1c0.3-0.5,0.4-0.4,0.8-1.2c0.4-0.6,0.4-1,0.8-1.2
		c0.4-0.2,0.7-0.2,1-0.2c-0.3,1.7-1.1,6.7-2.3,14.6c0,0-2.1,8.8-1.7,18.6c0.1,1.9,0.1,3.1,0.4,4.8c0.3,2,0.5,3.1,0.6,5.2
		c0.1,1.3,0,2.3,0,3c-2.3,1.5-3.5,1.2-4,1C46.6,64.8,45.3,64.2,43.9,57.2z"/>
	<path class="st4" d="M52,17.1c-0.7,0-1.8,0-3.1-0.5c-1.8-0.7-3-1.8-3.5-2.4c-0.5-0.6-1.1-1.6-1.5-2.8c-0.9-2.7-0.4-5.1-0.1-6.1
		c0.7-0.1,2.3-0.4,4.1,0.3c1.9,0.7,3,1.9,3.5,2.4c0.6,0.8,1.6,2.4,1.9,4.7c0.2,1.8,0,3.2-0.3,4.1"/>
	<path class="st4" d="M55.1,14.1c-0.3-0.7-0.7-1.7-0.7-3.1c0-2,0.7-3.4,1-4.1c0.4-0.7,1.1-1.6,2.1-2.4c2.2-1.8,4.6-2.1,5.7-2.2
		c0.4,0.6,1.1,2,1.2,3.9c0.1,2-0.7,3.5-1,4.1c-0.5,0.8-1.7,2.3-3.8,3.4c-1.6,0.8-3,1.1-3.9,1.2"/>
	<path class="st4" d="M56,17.3c0.4-0.6,1.1-1.4,2.3-2.2c1.7-1,3.3-1.2,4.1-1.2c0.8,0,1.9,0.1,3.1,0.5c2.7,1,4.2,2.9,4.8,3.7
		c-0.3,0.6-1.1,2-2.8,3c-1.7,1.1-3.4,1.2-4.1,1.2c-1-0.1-2.9-0.3-4.9-1.5c-1.5-0.9-2.5-2-3-2.8"/>
	<path class="st0" d="M29.9,28c-0.6,0.1-1.5,0.3-2.7,0.1c-1.7-0.3-2.8-1.1-3.3-1.5c-0.5-0.5-1.2-1.1-1.7-2.1c-1.2-2.1-1.1-4.2-1-5.1
		c0.6-0.2,1.9-0.7,3.5-0.4c1.7,0.3,2.8,1.1,3.3,1.5c0.6,0.6,1.7,1.8,2.3,3.7c0.5,1.5,0.5,2.7,0.4,3.5"/>
	<path class="st0" d="M31.5,30.5c0,0.4-0.1,1.1-0.5,1.9c-0.5,1.1-1.3,1.7-1.7,1.9c-0.4,0.3-1,0.6-1.8,0.7c-1.7,0.4-3.1-0.1-3.7-0.4
		c0-0.4-0.1-1.4,0.5-2.5c0.5-1.1,1.4-1.7,1.7-1.9c0.5-0.3,1.6-0.8,3-0.8c1.1,0,2,0.3,2.5,0.5"/>
	<path class="st0" d="M35,19.4c0.3,0.3,0.7,0.9,1,1.7c0.4,1.1,0.2,2.1,0.1,2.6c-0.1,0.5-0.3,1.1-0.8,1.8c-0.9,1.5-2.3,2.1-2.9,2.3
		c-0.3-0.3-1-1-1.4-2.1c-0.4-1.2-0.2-2.2-0.1-2.6c0.2-0.6,0.6-1.7,1.6-2.7c0.8-0.8,1.6-1.2,2.1-1.4"/>
</g>
</svg>
